<svg width="367" height="367" viewBox="0 0 367 367" fill="none" xmlns="http://www.w3.org/2000/svg">
<g opacity="0.6" filter="url(#filter0_d_0_1)">
<circle cx="181.5" cy="191.5" r="110.5" fill="#00227B"/>
</g>
<path d="M204.308 263.188H145.884C135.864 263.188 127.666 255.022 127.666 245.042V193.628C127.666 183.648 135.864 175.482 145.884 175.482H204.309C214.33 175.482 222.528 183.648 222.528 193.628V245.042C222.528 255.022 214.329 263.188 204.308 263.188Z" fill="white"/>
<path d="M204.309 175.482C214.329 175.482 222.527 183.647 222.527 193.627V245.041C222.527 255.022 214.329 263.187 204.309 263.187H145.884C135.864 263.187 127.666 255.022 127.666 245.041V193.627C127.666 183.647 135.864 175.482 145.884 175.482H204.309V175.482ZM204.309 172.614H145.884C143.047 172.614 140.288 173.172 137.685 174.274C135.175 175.336 132.92 176.853 130.982 178.784C129.043 180.715 127.52 182.962 126.453 185.46C125.348 188.053 124.786 190.801 124.786 193.627V245.041C124.786 247.868 125.348 250.615 126.453 253.208C127.52 255.708 129.043 257.954 130.982 259.884C132.92 261.815 135.176 263.333 137.685 264.395C140.288 265.496 143.047 266.055 145.884 266.055H204.31C207.147 266.055 209.906 265.496 212.509 264.395C215.019 263.333 217.274 261.816 219.212 259.884C221.151 257.954 222.674 255.707 223.741 253.208C224.847 250.615 225.408 247.868 225.408 245.041V193.627C225.408 190.801 224.847 188.053 223.741 185.46C222.674 182.961 221.151 180.715 219.212 178.784C217.274 176.854 215.018 175.336 212.509 174.274C209.906 173.172 207.146 172.614 204.309 172.614Z" fill="#00227B"/>
<path d="M221.221 231.396C212.124 232.458 203.058 232.72 203.058 232.72C203.058 232.72 198.44 209.787 197.16 191.805C196.217 178.481 197.104 167.878 203.058 171.336C205.797 172.927 208.951 175.924 212.24 179.726C224.578 193.989 238.752 219.601 239.53 224.915C240.032 228.333 230.614 230.293 221.221 231.396Z" fill="white"/>
<path d="M201.84 234.247L201.591 233.014C201.563 232.873 198.739 218.782 196.912 204.192C195.834 195.59 195.308 188.488 195.346 183.083C195.397 175.701 196.474 171.515 198.732 169.908C199.723 169.202 201.41 168.655 203.813 170.05C211.733 174.652 221.784 189.313 227.071 197.642C230.598 203.198 233.973 209.038 236.578 214.086C238.412 217.643 240.671 222.371 241.012 224.699C241.112 225.375 241.045 226.401 240.165 227.445C238.892 228.954 236.248 230.136 231.844 231.162C228.615 231.914 224.466 232.561 219.511 233.086C211.123 233.973 203.181 234.209 203.102 234.211L201.84 234.247ZM200.995 172.167C200.707 172.167 200.555 172.275 200.472 172.333C199.496 173.028 196.568 177.35 199.881 203.808C201.381 215.79 203.559 227.439 204.283 231.184C206.837 231.081 212.898 230.787 219.211 230.119C233.87 228.566 237.144 226.39 237.873 225.527C238.074 225.289 238.058 225.178 238.05 225.13C237.625 222.234 232.095 211.136 224.541 199.235C215.793 185.452 207.689 175.753 202.304 172.625C201.694 172.27 201.278 172.167 200.995 172.167Z" fill="#00227B"/>
<path d="M156.771 170.49L154.93 184.362L153.882 192.249L151.648 209.088C151.648 209.088 147.566 211.853 140.775 214.045C138.237 214.865 135.315 215.598 132.09 216.079C126.817 216.869 120.722 216.97 114.117 215.625C97.1256 212.158 86.9283 199.587 82.5134 193.267C73.9805 181.067 72.6674 177.769 75.0394 172.633C76.8503 168.697 79.9529 167.979 79.9529 167.979C79.9529 167.979 79.7999 164.833 82.2995 163.715C89.7907 160.364 99.4409 169.313 99.4409 169.313C99.4409 169.313 99.8004 159.69 104.971 161.911C108.534 163.443 109.342 173.92 109.342 173.92C109.342 173.92 114.124 180.04 121.72 180.852C125.69 181.276 131.184 180.129 136.64 178.463C136.703 178.444 136.767 178.426 136.83 178.403C139.738 177.509 142.627 176.472 145.272 175.447C146.458 174.989 147.595 174.53 148.662 174.091C153.429 172.123 156.771 170.49 156.771 170.49Z" fill="white"/>
<path opacity="0.35" d="M82.5108 193.267C86.9299 199.586 97.1255 212.159 114.116 215.624C124.758 217.793 134.084 216.2 140.775 214.042C147.567 211.853 151.648 209.086 151.648 209.086L151.948 195.798C151.948 195.798 147.321 191.356 143.011 193.168C137.832 195.343 139.492 202.739 132.096 204.796C111.536 210.514 94.8341 200.067 89.4598 195.48C82.004 189.118 80.059 185.11 79.01 183.457C76.8387 180.035 75.1619 177.347 74.2166 174.939C73.2531 179.012 75.31 182.968 82.5108 193.267Z" fill="#00227B"/>
<path d="M124.369 218.148C120.821 218.148 117.288 217.793 113.816 217.084C106.178 215.526 99.0523 212.019 92.6372 206.658C88.5086 203.208 84.6885 198.988 81.2839 194.119C77.129 188.175 74.4879 184.093 73.2834 180.813C72.1291 177.67 72.2434 175.12 73.6767 172.01C75.0877 168.946 77.2212 167.538 78.5104 166.934C78.721 165.359 79.5413 163.316 81.6855 162.357C87.7772 159.631 94.8069 163.849 98.2863 166.445C98.3201 166.269 98.3579 166.089 98.3982 165.906C98.975 163.33 99.9705 161.581 101.357 160.71C102.208 160.175 103.629 159.712 105.567 160.545C107.533 161.391 108.967 163.881 109.952 168.158C110.457 170.349 110.699 172.406 110.791 173.317C111.849 174.511 115.984 178.739 121.881 179.369C132.647 180.518 155.877 169.265 156.111 169.151C156.606 168.909 157.195 168.959 157.643 169.28C158.09 169.6 158.325 170.141 158.253 170.685L153.134 209.281C153.078 209.702 152.845 210.079 152.492 210.318C152.321 210.434 148.216 213.19 141.389 215.411C137.391 216.713 133.277 217.56 129.163 217.931C127.564 218.076 125.965 218.148 124.369 218.148ZM80.2991 169.427C80.1058 169.479 77.8209 170.161 76.3967 173.252C74.4789 177.415 74.9503 179.841 83.7399 192.414C92.0037 204.235 102.611 211.755 114.416 214.163C125.172 216.356 134.514 214.511 140.458 212.577C145.496 210.937 148.971 208.981 150.256 208.2L154.926 172.995C152.487 174.105 148.496 175.848 144.018 177.52C134.049 181.24 126.493 182.859 121.562 182.333C113.428 181.465 108.373 175.106 108.161 174.836C107.981 174.605 107.872 174.326 107.85 174.034C107.848 174.01 107.645 171.465 107.027 168.792C105.984 164.286 104.737 163.435 104.38 163.281C103.486 162.897 103.1 163.139 102.955 163.23C101.697 164.018 101.015 167.294 100.933 169.368C100.91 169.95 100.548 170.466 100.008 170.689C99.4662 170.911 98.8458 170.799 98.4171 170.402C98.3283 170.32 89.4038 162.171 82.9114 165.076C81.4156 165.745 81.4427 167.765 81.4469 167.91C81.4913 168.646 81.0223 169.274 80.2991 169.427Z" fill="#00227B"/>
<path d="M100.672 169.311C100.706 169.73 100.644 170.111 100.56 170.441C100.518 170.612 100.466 170.759 100.414 170.911C100.36 171.052 100.302 171.197 100.244 171.325C100.008 171.855 99.7529 172.293 99.5102 172.718C99.2666 173.141 99.0322 173.544 98.8141 173.947L98.6545 174.25C98.6043 174.352 98.5508 174.452 98.5023 174.555L98.3608 174.863L98.2259 175.174L98.1033 175.491L97.9897 175.812C97.9511 175.919 97.9223 176.029 97.8877 176.138C97.8515 176.247 97.8244 176.358 97.7947 176.469C97.6812 176.915 97.5833 177.374 97.5265 177.847C97.4648 178.319 97.4253 178.803 97.4138 179.295C97.4015 179.543 97.4064 179.79 97.4039 180.043C97.3998 180.169 97.4105 180.294 97.4113 180.421C97.4138 180.548 97.4179 180.675 97.4171 180.803V180.812C97.4171 180.911 97.3365 180.992 97.2361 180.992C97.1661 180.992 97.1061 180.952 97.0765 180.894C96.8362 180.43 96.619 179.949 96.4512 179.445C96.2743 178.944 96.1476 178.421 96.0546 177.886C95.8719 176.816 95.8761 175.683 96.0768 174.577L96.1599 174.164C96.192 174.028 96.2274 173.893 96.2611 173.756C96.2973 173.621 96.3376 173.488 96.3755 173.353C96.415 173.219 96.4619 173.089 96.5055 172.957C96.6857 172.432 96.9086 171.934 97.1382 171.467C97.3669 171.001 97.6104 170.561 97.8079 170.179C98.0161 169.792 98.1337 169.478 98.2028 169.309L98.3476 168.954C98.5994 168.338 99.3045 168.042 99.9224 168.293C100.359 168.472 100.635 168.874 100.672 169.311Z" fill="#00227B"/>
<path d="M112.472 216.648C112.094 216.648 111.73 216.44 111.55 216.08C111.297 215.574 111.504 214.959 112.013 214.707C116.162 212.651 118.997 206.234 120.21 196.15C121.15 188.336 120.76 181.068 120.755 180.996C120.724 180.431 121.158 179.948 121.725 179.916C122.289 179.884 122.777 180.317 122.809 180.881C122.813 180.955 123.214 188.378 122.255 196.367C121.688 201.094 120.763 205.106 119.504 208.289C117.875 212.41 115.663 215.186 112.929 216.541C112.782 216.614 112.626 216.648 112.472 216.648Z" fill="#00227B"/>
<g opacity="0.35">
<g opacity="0.35">
<g opacity="0.35">
<g opacity="0.35">
<path opacity="0.35" d="M245.206 282.583V282.374C243.561 282.444 245.206 282.583 245.206 282.583Z" fill="#00227B"/>
</g>
</g>
</g>
</g>
<path d="M224.447 257.418H125.642C125.642 257.418 126.244 240.434 132.089 216.079C134.431 206.31 137.619 195.356 141.949 183.836C142.989 181.07 144.097 178.272 145.272 175.446C148.557 167.564 152.389 159.491 156.857 151.419H193.232C196.926 158.093 200.185 164.765 203.059 171.335C204.918 175.584 206.617 179.788 208.166 183.917C214.928 201.919 218.899 218.534 221.222 231.395C224.088 247.262 224.447 257.418 224.447 257.418Z" fill="white"/>
<path d="M210.883 196.584C212.792 198.707 213.665 201.179 214.472 203.661C214.877 204.902 215.276 206.146 215.656 207.396C215.847 208.021 216.043 208.644 216.213 209.274C216.389 209.903 216.559 210.534 216.73 211.164L217.23 213.058C217.395 213.69 217.561 214.321 217.716 214.956L218.625 218.766C218.773 219.402 218.935 220.034 219.08 220.671L219.514 222.58L219.959 224.487C220.108 225.122 220.263 225.756 220.403 226.394L221.26 230.215C221.408 230.851 221.534 231.492 221.67 232.13L222.072 234.047L222.272 235.005L222.373 235.484L222.466 235.965L222.842 237.886C222.968 238.527 223.097 239.167 223.232 239.806C223.362 240.446 223.493 241.086 223.63 241.725C224.202 244.276 224.62 246.86 224.794 249.477C224.816 249.804 224.842 250.13 224.857 250.459L224.899 251.443C224.921 252.1 224.939 252.756 224.929 253.418C224.925 254.077 224.91 254.738 224.867 255.401C224.829 256.064 224.773 256.727 224.673 257.395C224.654 257.523 224.533 257.612 224.404 257.593C224.316 257.58 224.247 257.52 224.217 257.443L224.216 257.44C223.744 256.19 223.358 254.935 222.994 253.679C222.814 253.052 222.642 252.422 222.475 251.794L222.234 250.849C222.159 250.533 222.081 250.219 222.002 249.903C221.696 248.642 221.426 247.377 221.183 246.107C221.066 245.471 220.96 244.834 220.863 244.195C220.758 243.556 220.662 242.917 220.563 242.278C220.466 241.638 220.363 240.999 220.26 240.361C220.15 239.724 220.027 239.088 219.903 238.453L219.53 236.548L219.437 236.072L219.337 235.597L219.138 234.647L218.74 232.747C218.605 232.114 218.479 231.479 218.334 230.848L217.483 227.059C217.346 226.426 217.187 225.798 217.036 225.169L216.571 223.283L216.095 221.401C216.018 221.087 215.93 220.775 215.846 220.463L215.59 219.526L214.562 215.781C214.207 214.536 213.843 213.294 213.497 212.047C213.324 211.423 213.151 210.799 212.983 210.174L212.858 209.705L212.726 209.238L212.465 208.303C212.117 207.057 211.787 205.805 211.462 204.551L211.223 203.608C211.144 203.295 211.056 202.983 210.972 202.67C210.805 202.044 210.665 201.41 210.559 200.765C210.455 200.119 210.382 199.464 210.354 198.793C210.339 198.458 210.337 198.119 210.35 197.775C210.363 197.43 210.385 197.082 210.446 196.722L210.448 196.709C210.471 196.572 210.601 196.481 210.737 196.504C210.796 196.514 210.847 196.544 210.883 196.584Z" fill="#00227B"/>
<path d="M125.41 257.41C125.258 257.073 125.153 256.737 125.055 256.401C124.957 256.063 124.884 255.73 124.819 255.394C124.688 254.722 124.617 254.054 124.577 253.387C124.559 253.054 124.547 252.721 124.548 252.389C124.548 252.057 124.562 251.727 124.577 251.397L124.633 250.406C124.65 250.076 124.671 249.746 124.698 249.416C124.801 248.099 124.901 246.779 125.056 245.468C125.126 244.811 125.204 244.155 125.282 243.499C125.319 243.171 125.37 242.845 125.415 242.517L125.554 241.536L125.844 239.577C125.946 238.925 126.065 238.276 126.176 237.625C126.403 236.324 126.617 235.022 126.876 233.728C127.128 232.433 127.358 231.134 127.616 229.841C127.877 228.548 128.132 227.254 128.384 225.96C128.448 225.636 128.506 225.311 128.576 224.989L128.783 224.022L129.197 222.088L129.611 220.154C129.646 219.993 129.678 219.832 129.715 219.671L129.829 219.19L130.056 218.227L130.964 214.376C131.037 214.055 131.119 213.736 131.2 213.416C131.279 213.095 131.36 212.776 131.436 212.455C131.589 211.814 131.74 211.172 131.886 210.529C132.035 209.886 132.18 209.242 132.334 208.601C132.482 207.957 132.668 207.325 132.854 206.691C133.044 206.059 133.246 205.431 133.457 204.805C133.67 204.18 133.895 203.558 134.123 202.937L134.475 202.01C134.534 201.856 134.6 201.703 134.664 201.55C134.729 201.397 134.792 201.244 134.859 201.092C135.125 200.483 135.394 199.877 135.68 199.276C135.963 198.674 136.259 198.076 136.569 197.484C136.879 196.893 137.201 196.305 137.558 195.73C137.626 195.619 137.772 195.585 137.883 195.654C137.959 195.7 137.999 195.783 137.995 195.867V195.87C137.847 198.574 137.338 201.148 136.836 203.72C136.707 204.362 136.576 205.002 136.431 205.64C136.285 206.277 136.129 206.91 135.963 207.54C135.615 208.797 135.267 210.054 134.903 211.307C134.721 211.934 134.544 212.562 134.369 213.191C134.28 213.504 134.197 213.82 134.112 214.135C134.029 214.45 133.944 214.765 133.873 215.084L132.975 218.893L132.751 219.846L132.639 220.322C132.602 220.481 132.57 220.64 132.535 220.799L132.125 222.713L131.716 224.626L131.511 225.583C131.442 225.902 131.385 226.223 131.321 226.543C130.27 231.656 129.563 236.83 128.876 241.993L128.61 243.929C128.527 244.575 128.443 245.221 128.353 245.865L127.823 249.736C127.727 250.381 127.649 251.026 127.562 251.671C127.517 251.993 127.469 252.316 127.409 252.637C127.35 252.958 127.292 253.279 127.219 253.6C127.075 254.241 126.897 254.88 126.685 255.517C126.58 255.836 126.454 256.156 126.325 256.474C126.192 256.792 126.048 257.111 125.871 257.428L125.869 257.432C125.8 257.554 125.644 257.599 125.521 257.53C125.469 257.5 125.432 257.458 125.41 257.41Z" fill="#00227B"/>
<path d="M154.099 235.99C148.464 238.263 139.743 237.787 133.798 237.07C130.232 236.641 127.728 233.363 128.254 229.824C128.734 226.594 131.588 224.245 134.861 224.398C140.422 224.658 148.764 224.779 154.047 223.612" fill="white"/>
<g opacity="0.35">
<g opacity="0.35">
<g opacity="0.35">
<g opacity="0.35">
<path opacity="0.35" d="M154.101 235.989C148.464 238.265 139.743 237.785 133.797 237.073C130.232 236.642 127.729 233.363 128.254 229.826C128.359 229.104 128.587 228.426 128.91 227.808C129.849 229.593 131.627 230.909 133.797 231.172C139.732 231.889 148.438 232.364 154.076 230.103L154.101 235.989Z" fill="#00227B"/>
</g>
</g>
</g>
</g>
<path d="M142.896 239.153C139.635 239.153 136.393 238.885 133.617 238.551C131.491 238.294 129.605 237.219 128.305 235.523C127.002 233.823 126.459 231.722 126.773 229.606C127.059 227.678 128.048 225.933 129.557 224.694C131.068 223.452 132.976 222.819 134.931 222.91C143.124 223.292 149.797 223.025 153.722 222.158C154.511 221.984 156.469 221.978 157.625 225.679C158.799 229.44 158.669 235.757 154.661 237.373C151.356 238.705 147.111 239.153 142.896 239.153ZM134.558 225.882C132.144 225.882 130.092 227.633 129.735 230.041C129.54 231.354 129.877 232.659 130.685 233.714C131.491 234.765 132.66 235.431 133.978 235.59C142.479 236.614 149.427 236.266 153.538 234.608C154.759 234.116 155.11 232.145 155.204 231.321C155.533 228.436 154.652 225.771 154.1 225.126C148.742 226.248 140.668 226.162 134.792 225.888C134.713 225.883 134.635 225.882 134.558 225.882Z" fill="#00227B"/>
<path d="M197.203 235.99C202.838 238.263 211.559 237.787 217.505 237.07C221.071 236.641 223.574 233.363 223.048 229.824C222.569 226.594 219.715 224.245 216.441 224.398C210.88 224.658 202.538 224.779 197.255 223.612" fill="white"/>
<g opacity="0.35">
<g opacity="0.35">
<g opacity="0.35">
<g opacity="0.35">
<path opacity="0.35" d="M217.503 237.073C211.558 237.785 202.837 238.265 197.2 235.989L197.224 230.048C202.861 232.309 211.568 231.834 217.503 231.117C219.664 230.859 221.432 229.553 222.375 227.777C222.708 228.401 222.941 229.089 223.051 229.825C223.572 233.363 221.07 236.642 217.503 237.073Z" fill="#00227B"/>
</g>
</g>
</g>
</g>
<path d="M208.407 239.153C204.192 239.153 199.947 238.705 196.641 237.373C192.634 235.757 192.504 229.439 193.678 225.679C194.833 221.978 196.792 221.984 197.58 222.157C201.506 223.025 208.18 223.292 216.371 222.91C218.328 222.819 220.235 223.452 221.745 224.693C223.254 225.933 224.243 227.677 224.53 229.606C224.844 231.722 224.299 233.823 222.998 235.522C221.698 237.219 219.811 238.294 217.685 238.55C214.909 238.885 211.667 239.153 208.407 239.153ZM197.203 225.126C196.651 225.771 195.77 228.436 196.099 231.321C196.193 232.145 196.543 234.116 197.765 234.609C201.876 236.266 208.824 236.615 217.325 235.59C218.643 235.431 219.813 234.765 220.618 233.714C221.426 232.659 221.763 231.355 221.568 230.042C221.2 227.556 219.026 225.771 216.512 225.888C210.634 226.162 202.561 226.247 197.203 225.126Z" fill="#00227B"/>
<path d="M199.381 219.522V239.358C199.381 243.038 196.356 246.051 192.661 246.051H155.984C152.294 246.051 149.269 243.038 149.269 239.358V219.522C149.269 215.842 152.294 212.834 155.984 212.834H192.661C194.837 212.834 196.779 213.878 198.01 215.485C198.869 216.608 199.381 218.008 199.381 219.522Z" fill="white"/>
<g opacity="0.35">
<g opacity="0.35">
<g opacity="0.35">
<g opacity="0.35">
<path opacity="0.35" d="M199.38 219.522V239.358C199.38 243.038 196.357 246.049 192.662 246.049H155.985C152.29 246.049 149.267 243.038 149.267 239.358V231.939C154.775 237.532 165.609 241.044 175.544 241.096C178.737 241.113 181.312 238.598 181.54 235.426C181.542 235.394 181.545 235.362 181.547 235.331C181.792 232.548 184.093 230.295 186.89 230.094C190.076 229.865 192.766 232.209 193.081 235.255C197.89 229.342 196.481 219.064 198.011 215.485C198.87 216.609 199.38 218.007 199.38 219.522Z" fill="#00227B"/>
</g>
</g>
</g>
</g>
<path d="M192.663 247.541H155.984C151.456 247.541 147.771 243.871 147.771 239.361V219.522C147.771 215.012 151.456 211.342 155.984 211.342H192.663C197.191 211.342 200.876 215.012 200.876 219.522V239.361C200.876 243.871 197.191 247.541 192.663 247.541ZM155.984 214.323C153.106 214.323 150.765 216.655 150.765 219.522V239.361C150.765 242.227 153.106 244.559 155.984 244.559H192.663C195.541 244.559 197.882 242.227 197.882 239.361V219.522C197.882 216.655 195.541 214.323 192.663 214.323H155.984Z" fill="#00227B"/>
<path d="M187.317 235.21C190.516 235.21 193.109 232.627 193.109 229.441C193.109 226.255 190.516 223.672 187.317 223.672C184.118 223.672 181.525 226.255 181.525 229.441C181.525 232.627 184.118 235.21 187.317 235.21Z" fill="#22A7F0"/>
<g opacity="0.7">
<g opacity="0.7">
<g opacity="0.7">
<g opacity="0.7">
<path opacity="0.7" d="M193.109 229.441C193.109 229.836 193.072 230.219 192.997 230.594C192.462 227.956 190.122 225.971 187.319 225.971C184.512 225.971 182.172 227.956 181.637 230.594C181.562 230.219 181.524 229.837 181.524 229.441C181.524 226.253 184.118 223.673 187.319 223.673C190.514 223.673 193.109 226.253 193.109 229.441Z" fill="white"/>
</g>
</g>
</g>
</g>
<g opacity="0.35">
<g opacity="0.35">
<g opacity="0.35">
<g opacity="0.35">
<path opacity="0.35" d="M193.108 229.44C193.108 232.625 190.515 235.208 187.317 235.208C184.119 235.208 181.527 232.625 181.527 229.44C181.527 228.703 181.666 228 181.924 227.353C182.758 229.505 184.86 231.028 187.318 231.028C189.777 231.028 191.877 229.505 192.712 227.353C192.969 228 193.108 228.703 193.108 229.44Z" fill="#00227B"/>
</g>
</g>
</g>
</g>
<path d="M187.317 236.328C183.505 236.328 180.403 233.238 180.403 229.441C180.403 225.643 183.505 222.554 187.317 222.554C191.13 222.554 194.232 225.643 194.232 229.441C194.232 233.238 191.13 236.328 187.317 236.328ZM187.317 224.79C184.743 224.79 182.648 226.877 182.648 229.441C182.648 232.005 184.743 234.091 187.317 234.091C189.892 234.091 191.986 232.005 191.986 229.441C191.986 226.877 189.892 224.79 187.317 224.79Z" fill="#00227B"/>
<path d="M170.904 247.168C170.284 247.168 169.782 246.667 169.782 246.05V232.463L162.447 226.963V212.833C162.447 212.215 162.95 211.715 163.57 211.715C164.189 211.715 164.692 212.216 164.692 212.833V225.847L172.027 231.347V246.05C172.027 246.667 171.524 247.168 170.904 247.168Z" fill="#00227B"/>
<path d="M175.043 256.73C181.531 256.73 187.77 254.333 192.643 250.066C199.393 244.155 210.756 237.107 223.299 241.628C228.331 243.441 231.761 246.767 234.101 250.447C240.126 236.541 252.767 235.707 258.239 243.589C258.239 243.589 249.042 287.29 246.045 288.263C241.751 289.656 231.433 288.191 231.433 288.191C231.433 288.191 195.539 283.351 175.043 283.351C154.546 283.351 118.652 288.191 118.652 288.191C118.652 288.191 108.335 289.655 104.041 288.263C101.044 287.29 91.8467 243.589 91.8467 243.589C97.3172 235.707 109.959 236.541 115.985 250.447C118.324 246.766 121.754 243.441 126.787 241.628C139.329 237.107 150.692 244.155 157.442 250.066C162.315 254.332 168.554 256.73 175.043 256.73Z" fill="white"/>
<g opacity="0.35">
<path d="M258.24 243.587C258.24 243.587 249.042 287.29 246.045 288.263C241.753 289.657 231.433 288.192 231.433 288.192C231.433 288.192 195.541 283.351 175.042 283.351C154.548 283.351 118.652 288.192 118.652 288.192C118.652 288.192 108.335 289.657 104.044 288.263C101.046 287.29 91.8488 243.587 91.8488 243.587C92.7505 242.29 93.8431 241.228 95.0707 240.423C98.0195 253.237 102.202 269.967 104.044 270.564C108.336 271.954 118.652 270.489 118.652 270.489C118.652 270.489 154.548 260.806 175.042 260.806C195.541 260.806 231.433 270.489 231.433 270.489C231.433 270.489 241.753 271.954 246.045 270.564C247.886 269.967 252.069 253.237 255.018 240.423C256.246 241.229 257.338 242.291 258.24 243.587Z" fill="#00227B"/>
</g>
<path d="M109.575 290.35C107.324 290.35 105.124 290.182 103.578 289.681C102.523 289.338 101.636 288.174 99.9714 283.009C98.9972 279.986 97.8281 275.777 96.4977 270.498C94.1018 260.993 91.7668 250.333 90.8741 246.192C90.4068 244.023 91.1201 241.781 92.7368 240.34C95.8403 237.573 100 236.507 104.149 237.417C106.763 237.991 109.307 239.35 111.506 241.349C113.326 243.005 114.909 245.073 116.229 247.519C118.907 244.115 122.279 241.667 126.279 240.226C130.812 238.592 135.554 238.267 140.376 239.262C144.268 240.065 148.226 241.729 152.139 244.21C152.837 244.653 153.042 245.574 152.599 246.269C152.155 246.964 151.229 247.168 150.532 246.726C142.478 241.619 134.661 240.376 127.298 243.03C123.145 244.527 119.765 247.29 117.251 251.246C116.954 251.713 116.421 251.977 115.869 251.935C115.316 251.891 114.832 251.547 114.612 251.039C112.094 245.228 108.046 241.325 103.505 240.33C100.308 239.629 97.1106 240.443 94.7337 242.563C93.9159 243.292 93.5588 244.443 93.8015 245.568C94.644 249.477 96.8523 259.563 99.1527 268.778C100.417 273.843 101.538 277.965 102.484 281.025C103.809 285.312 104.501 286.569 104.747 286.92C108.128 287.864 115.734 287.102 118.442 286.717C118.446 286.717 118.449 286.717 118.452 286.716C118.812 286.667 154.682 281.862 175.043 281.862C195.406 281.862 231.275 286.667 231.635 286.716C231.638 286.717 231.642 286.717 231.645 286.717C234.355 287.102 241.959 287.864 245.341 286.92C245.583 286.576 246.256 285.355 247.536 281.243C248.46 278.278 249.554 274.283 250.788 269.367C252.988 260.603 255.096 251.067 256.158 246.163C256.506 244.556 255.901 242.909 254.618 241.967C252.168 240.168 249.132 239.631 246.071 240.455C241.684 241.636 237.921 245.395 235.476 251.04C235.256 251.547 234.773 251.892 234.219 251.936C233.665 251.979 233.134 251.713 232.837 251.246C230.323 247.292 226.943 244.527 222.791 243.031C215.363 240.354 207.479 241.64 199.356 246.855C198.661 247.301 197.735 247.101 197.287 246.409C196.839 245.717 197.039 244.795 197.734 244.348C201.671 241.821 205.655 240.12 209.575 239.291C214.444 238.262 219.233 238.577 223.809 240.227C227.81 241.668 231.181 244.117 233.86 247.521C236.672 242.316 240.665 238.821 245.29 237.577C249.194 236.525 253.241 237.251 256.395 239.566C258.625 241.204 259.68 244.039 259.085 246.791C257.961 251.986 255.733 262.052 253.441 271.088C252.142 276.213 251 280.295 250.048 283.222C248.424 288.215 247.552 289.345 246.509 289.682C241.958 291.159 231.75 289.744 231.23 289.67C230.667 289.595 195.145 284.844 175.044 284.844C154.94 284.844 119.421 289.595 118.859 289.67C118.513 289.717 113.948 290.35 109.575 290.35Z" fill="#00227B"/>
<path d="M243.379 288.263H246.045C249.175 288.263 252.013 286.435 253.287 283.588C257.277 274.688 264.553 255.131 257.738 243.197C257.54 242.848 257.328 242.513 257.103 242.192C257.103 242.192 250.56 236.265 245.86 244.65C241.47 252.483 232.254 285.976 243.379 288.263Z" fill="#AFAFB2"/>
<g opacity="0.7">
<g opacity="0.7">
<g opacity="0.7">
<g opacity="0.7">
<path opacity="0.7" d="M243.453 250.233C243.57 250.045 243.688 249.868 243.802 249.703C249.582 241.318 257.627 247.246 257.627 247.246C257.903 247.567 258.165 247.902 258.407 248.25C259.214 249.399 259.859 250.618 260.364 251.894C260.038 248.759 259.224 245.796 257.738 243.197C257.54 242.849 257.328 242.514 257.103 242.193C257.103 242.193 250.561 236.265 245.86 244.65C245.147 245.92 244.31 247.859 243.453 250.233Z" fill="white"/>
</g>
</g>
</g>
</g>
<path d="M260.328 252.788C260.261 252.788 260.193 252.782 260.123 252.771L243.77 250.052C243.098 249.94 242.644 249.307 242.756 248.636C242.868 247.967 243.505 247.515 244.176 247.626L260.529 250.345C261.201 250.456 261.655 251.09 261.544 251.76C261.443 252.363 260.921 252.788 260.328 252.788Z" fill="#00227B"/>
<path d="M260.224 261.588C260.169 261.588 260.114 261.585 260.058 261.576L240.928 259.015C240.253 258.925 239.779 258.306 239.869 257.633C239.96 256.96 240.581 256.488 241.257 256.579L260.387 259.14C261.063 259.23 261.537 259.849 261.446 260.522C261.363 261.14 260.833 261.588 260.224 261.588Z" fill="#00227B"/>
<path d="M258.537 270.207C258.487 270.207 258.437 270.204 258.386 270.198L238.966 267.831C238.29 267.748 237.808 267.135 237.891 266.462C237.974 265.788 238.588 265.308 239.265 265.391L258.685 267.758C259.361 267.841 259.843 268.454 259.76 269.127C259.684 269.751 259.152 270.207 258.537 270.207Z" fill="#00227B"/>
<path d="M255.457 279.607C255.42 279.607 255.383 279.606 255.345 279.603L237.983 278.042C237.304 277.982 236.804 277.383 236.865 276.707C236.926 276.031 237.526 275.532 238.205 275.594L255.567 277.154C256.246 277.215 256.747 277.813 256.685 278.489C256.627 279.127 256.088 279.607 255.457 279.607Z" fill="#00227B"/>
<g opacity="0.35">
<g opacity="0.35">
<g opacity="0.35">
<g opacity="0.35">
<path opacity="0.35" d="M243.378 288.263H246.044C249.174 288.263 252.012 286.435 253.286 283.588C254.318 281.281 255.573 278.264 256.746 274.845C255.145 277.49 251.894 279.167 248.324 279.167H245.146C240.625 278.387 238.923 273.97 238.856 268.181C237.327 277.953 237.747 287.105 243.378 288.263Z" fill="#00227B"/>
</g>
</g>
</g>
</g>
<path d="M246.045 289.492H243.379C243.296 289.492 243.212 289.484 243.13 289.467C240.975 289.023 239.347 287.632 238.29 285.33C235.798 279.903 237.009 270.449 238.464 263.474C240.243 254.95 242.989 247.25 244.783 244.051C246.432 241.109 248.509 239.415 250.956 239.017C254.71 238.408 257.804 241.165 257.934 241.282C258.002 241.344 258.063 241.413 258.116 241.488C258.362 241.839 258.596 242.21 258.813 242.589C261.928 248.044 262.588 255.505 260.778 264.764C259.305 272.292 256.505 279.428 254.415 284.089C252.945 287.371 249.66 289.492 246.045 289.492ZM243.514 287.034H246.045C248.686 287.034 251.087 285.485 252.16 283.088C254.197 278.544 256.925 271.595 258.354 264.296C260.049 255.63 259.481 248.736 256.666 243.805C256.513 243.536 256.349 243.274 256.179 243.023C255.717 242.647 253.616 241.068 251.34 241.446C249.679 241.722 248.198 243.002 246.939 245.249C245.278 248.211 242.591 255.781 240.882 263.975C238.931 273.326 238.807 280.547 240.535 284.308C241.236 285.835 242.211 286.728 243.514 287.034Z" fill="#00227B"/>
<path d="M106.708 288.263H104.042C100.913 288.263 98.075 286.435 96.8005 283.588C92.8101 274.688 85.5345 255.131 92.3494 243.197C92.5477 242.848 92.7599 242.513 92.9846 242.192C92.9846 242.192 99.5272 236.265 104.228 244.65C108.618 252.483 117.833 285.976 106.708 288.263Z" fill="#AFAFB2"/>
<g opacity="0.7">
<g opacity="0.7">
<g opacity="0.7">
<g opacity="0.7">
<path opacity="0.7" d="M106.633 250.233C106.516 250.045 106.398 249.868 106.284 249.703C100.505 241.318 92.4589 247.246 92.4589 247.246C92.1833 247.567 91.9208 247.902 91.6789 248.25C90.8718 249.399 90.2268 250.618 89.7224 251.894C90.0482 248.759 90.8619 245.796 92.3478 243.197C92.5461 242.849 92.7584 242.514 92.983 242.193C92.983 242.193 99.5256 236.265 104.226 244.65C104.939 245.92 105.776 247.859 106.633 250.233Z" fill="white"/>
</g>
</g>
</g>
</g>
<path d="M89.7582 252.788C89.1658 252.788 88.6433 252.362 88.5421 251.761C88.4302 251.091 88.8836 250.458 89.5566 250.346L105.91 247.627C106.582 247.515 107.218 247.967 107.33 248.637C107.442 249.307 106.988 249.94 106.315 250.052L89.9622 252.771C89.8939 252.783 89.8256 252.788 89.7582 252.788Z" fill="#00227B"/>
<path d="M89.8615 261.588C89.2527 261.588 88.7228 261.14 88.6397 260.523C88.5492 259.85 89.0231 259.231 89.6986 259.141L108.83 256.579C109.506 256.488 110.126 256.96 110.218 257.633C110.308 258.306 109.834 258.925 109.159 259.015L90.0277 261.577C89.9718 261.585 89.9167 261.588 89.8615 261.588Z" fill="#00227B"/>
<path d="M91.5498 270.207C90.9352 270.207 90.4029 269.751 90.3263 269.127C90.2432 268.454 90.7246 267.841 91.4017 267.758L110.821 265.39C111.498 265.309 112.113 265.787 112.196 266.462C112.279 267.135 111.798 267.748 111.121 267.831L91.7012 270.198C91.6502 270.205 91.5992 270.207 91.5498 270.207Z" fill="#00227B"/>
<path d="M94.6298 279.607C93.9979 279.607 93.4598 279.127 93.4022 278.489C93.3413 277.813 93.8416 277.215 94.5204 277.154L111.882 275.594C112.562 275.533 113.161 276.031 113.223 276.707C113.283 277.383 112.783 277.981 112.104 278.042L94.7425 279.603C94.7047 279.606 94.6668 279.607 94.6298 279.607Z" fill="#00227B"/>
<g opacity="0.35">
<g opacity="0.35">
<g opacity="0.35">
<g opacity="0.35">
<path opacity="0.35" d="M106.707 288.263H104.042C100.912 288.263 98.0741 286.435 96.7997 283.588C95.7679 281.281 94.5132 278.264 93.34 274.845C94.9402 277.49 98.1918 279.167 101.762 279.167H104.939C109.461 278.387 111.163 273.97 111.23 268.181C112.759 277.953 112.338 287.105 106.707 288.263Z" fill="#00227B"/>
</g>
</g>
</g>
</g>
<path d="M106.708 289.492H104.042C100.427 289.492 97.1422 287.371 95.6727 284.088C93.5837 279.429 90.783 272.293 89.3103 264.765C87.4994 255.506 88.1601 248.045 91.2751 242.589C91.4914 242.21 91.7259 241.84 91.9711 241.489C92.0238 241.413 92.0847 241.345 92.1529 241.283C92.2829 241.165 95.3773 238.408 99.1308 239.018C101.578 239.416 103.655 241.109 105.304 244.051C107.098 247.251 109.844 254.95 111.623 263.475C113.078 270.45 114.289 279.904 111.797 285.331C110.74 287.633 109.112 289.024 106.957 289.467C106.875 289.484 106.791 289.492 106.708 289.492ZM93.9071 243.024C93.7368 243.274 93.5739 243.536 93.4208 243.804C90.6053 248.735 90.0368 255.629 91.7325 264.296C93.1608 271.596 95.8883 278.544 97.9263 283.088C99 285.486 101.4 287.034 104.041 287.034H106.573C107.875 286.729 108.851 285.836 109.552 284.308C111.279 280.547 111.156 273.325 109.205 263.974C107.496 255.78 104.809 248.211 103.148 245.249C101.889 243.002 100.408 241.722 98.7474 241.446C96.4749 241.069 94.3752 242.643 93.9071 243.024Z" fill="#00227B"/>
<path d="M136.799 287.141C136.624 287.141 136.446 287.1 136.28 287.013C135.73 286.727 135.518 286.051 135.806 285.504C140.493 276.584 140.562 266.552 136.011 255.688C132.579 247.494 127.664 241.887 127.614 241.831C127.205 241.368 127.249 240.662 127.714 240.253C128.179 239.845 128.888 239.888 129.298 240.352C129.507 240.588 134.476 246.246 138.057 254.764C140.17 259.789 141.348 264.763 141.56 269.546C141.827 275.56 140.56 281.278 137.794 286.54C137.594 286.923 137.203 287.141 136.799 287.141Z" fill="#00227B"/>
<path d="M213.743 287.141C213.338 287.141 212.948 286.923 212.747 286.541C209.982 281.278 208.715 275.561 208.982 269.547C209.194 264.764 210.372 259.79 212.485 254.764C216.066 246.247 221.034 240.588 221.244 240.352C221.655 239.889 222.364 239.845 222.829 240.254C223.293 240.662 223.338 241.368 222.927 241.831C222.878 241.887 217.963 247.494 214.53 255.688C209.98 266.552 210.049 276.584 214.736 285.504C215.023 286.051 214.811 286.726 214.262 287.013C214.096 287.1 213.918 287.141 213.743 287.141Z" fill="#00227B"/>
<g opacity="0.35">
<path d="M212.24 179.726C210.945 181.202 209.584 182.603 208.165 183.919C204.798 187.042 201.108 189.7 197.16 191.806C190.492 195.369 183.094 197.367 175.303 197.404C167.692 197.437 160.448 195.596 153.881 192.249C149.581 190.054 145.574 187.217 141.948 183.837C140.144 182.152 138.434 180.337 136.829 178.403C139.736 177.509 142.625 176.472 145.27 175.447C148.555 167.565 152.387 159.492 156.855 151.419H193.231C196.924 158.094 200.183 164.765 203.057 171.336C205.797 172.927 208.951 175.924 212.24 179.726Z" fill="#00227B"/>
</g>
<path d="M230.59 143.733C229.957 143.801 229.388 143.345 229.32 142.714L225.77 109.809C225.701 109.178 226.16 108.612 226.793 108.544C233.439 107.832 239.405 112.621 240.119 119.24L241.331 130.461C242.045 137.08 237.236 143.022 230.59 143.733Z" fill="white"/>
<path d="M230.465 144.024C230.138 144.024 229.823 143.914 229.565 143.706C229.266 143.466 229.079 143.125 229.038 142.744L225.488 109.839C225.447 109.459 225.557 109.085 225.798 108.788C226.039 108.49 226.382 108.303 226.764 108.262C233.556 107.536 239.673 112.447 240.403 119.211L241.613 130.432C241.967 133.708 241.018 136.925 238.942 139.491C236.866 142.057 233.91 143.664 230.621 144.016L230.59 143.734L230.621 144.016C230.569 144.021 230.516 144.024 230.465 144.024ZM228.096 108.757C227.675 108.757 227.252 108.779 226.825 108.825C226.593 108.849 226.386 108.962 226.241 109.142C226.095 109.322 226.028 109.547 226.053 109.778L229.603 142.683C229.628 142.913 229.741 143.12 229.922 143.265C230.103 143.41 230.33 143.476 230.561 143.452C233.7 143.116 236.518 141.582 238.5 139.135C240.481 136.687 241.386 133.617 241.049 130.491L239.838 119.27C239.187 113.242 234.051 108.757 228.096 108.757Z" fill="#00227B"/>
<g opacity="0.35">
<g opacity="0.35">
<g opacity="0.35">
<g opacity="0.35">
<path opacity="0.35" d="M240.763 125.199L241.332 130.462C242.045 137.078 237.237 143.022 230.591 143.736C229.957 143.805 229.389 143.344 229.321 142.714L228.374 133.967C228.594 134.346 229.025 134.579 229.49 134.533L230.273 134.447C235.524 133.886 239.631 130.055 240.763 125.199Z" fill="#00227B"/>
</g>
</g>
</g>
</g>
<path d="M230.463 145.318C229.841 145.318 229.242 145.108 228.751 144.714C228.181 144.257 227.825 143.607 227.747 142.883L224.197 109.978C224.119 109.254 224.328 108.543 224.787 107.976C225.245 107.409 225.898 107.054 226.625 106.976C234.127 106.173 240.887 111.6 241.694 119.072L242.904 130.293C243.295 133.913 242.246 137.468 239.953 140.303C237.659 143.138 234.394 144.914 230.759 145.302C230.661 145.312 230.562 145.318 230.463 145.318ZM230.423 142.166H230.423C230.423 142.166 230.423 142.166 230.423 142.166ZM227.392 110.074L230.849 142.113C233.471 141.726 235.816 140.392 237.489 138.324C239.252 136.145 240.058 133.413 239.758 130.63L238.547 119.409C237.943 113.807 232.986 109.701 227.392 110.074Z" fill="#00227B"/>
<path d="M117.745 120.215C118.379 120.147 118.947 120.604 119.016 121.235L122.566 154.14C122.634 154.771 122.176 155.337 121.542 155.405C114.897 156.117 108.931 151.328 108.217 144.709L107.007 133.488C106.291 126.869 111.1 120.927 117.745 120.215Z" fill="white"/>
<path d="M120.239 155.759C113.998 155.759 108.615 151.057 107.933 144.739L106.723 133.518C105.993 126.754 110.924 120.66 117.715 119.933L117.746 120.215L117.715 119.933C118.502 119.849 119.213 120.419 119.298 121.204L122.848 154.11C122.933 154.895 122.36 155.602 121.572 155.686C121.125 155.735 120.68 155.759 120.239 155.759ZM117.869 120.492C117.838 120.492 117.807 120.493 117.775 120.496C111.296 121.19 106.591 127.004 107.288 133.457L108.499 144.678C109.195 151.132 115.031 155.818 121.511 155.124C121.988 155.073 122.334 154.646 122.283 154.171L118.733 121.266C118.685 120.822 118.307 120.492 117.869 120.492Z" fill="#00227B"/>
<g opacity="0.35">
<g opacity="0.35">
<g opacity="0.35">
<g opacity="0.35">
<path opacity="0.35" d="M121.584 145.011L122.568 154.14C122.637 154.771 122.175 155.337 121.542 155.405C118.054 155.777 114.749 154.636 112.296 152.507C110.08 150.584 108.558 147.852 108.218 144.71L107.708 139.982C110.042 143.929 114.557 146.368 119.429 145.848L120.635 145.718C121.074 145.671 121.422 145.388 121.584 145.011Z" fill="#00227B"/>
</g>
</g>
</g>
</g>
<path d="M120.239 157.052C113.342 157.052 107.395 151.858 106.642 144.877L105.432 133.656C104.626 126.183 110.074 119.45 117.577 118.647C119.076 118.486 120.429 119.571 120.59 121.065L124.14 153.971C124.301 155.466 123.212 156.812 121.711 156.972C121.217 157.026 120.725 157.052 120.239 157.052ZM117.488 121.837C111.943 122.657 107.975 127.718 108.579 133.32L109.789 144.541C110.394 150.143 115.351 154.248 120.945 153.875L117.488 121.837Z" fill="#00227B"/>
<path d="M174.174 188.37C205.445 188.37 230.796 163.121 230.796 131.974C230.796 100.827 205.445 75.5778 174.174 75.5778C142.902 75.5778 117.551 100.827 117.551 131.974C117.551 163.121 142.902 188.37 174.174 188.37Z" fill="white"/>
<path d="M174.119 188.655C167.177 188.655 160.395 187.415 153.928 184.961C147.053 182.351 140.823 178.485 135.412 173.471C130.001 168.457 125.681 162.547 122.572 155.905C119.354 149.028 117.581 141.664 117.304 134.018C117.027 126.371 118.262 118.899 120.974 111.809C123.594 104.961 127.476 98.7566 132.509 93.3669C137.543 87.9772 143.479 83.6741 150.148 80.5773C157.052 77.3716 164.446 75.6064 172.123 75.3302C179.8 75.0541 187.302 76.2841 194.421 78.9859C201.296 81.5951 207.526 85.4614 212.937 90.475C218.348 95.4893 222.668 101.399 225.777 108.041C228.996 114.918 230.768 122.282 231.045 129.929C231.322 137.575 230.087 145.047 227.375 152.137C224.755 158.986 220.873 165.19 215.839 170.58C210.804 175.969 204.871 180.272 198.202 183.368C191.297 186.574 183.904 188.339 176.227 188.615C175.522 188.642 174.819 188.655 174.119 188.655ZM174.2 75.8596C173.516 75.8596 172.833 75.8719 172.143 75.8965C141.098 77.0126 116.753 103.076 117.873 133.997C118.415 148.975 124.781 162.847 135.799 173.056C146.306 182.793 159.847 188.087 174.123 188.088C174.816 188.088 175.509 188.075 176.205 188.05C191.243 187.51 205.171 181.169 215.421 170.195C225.671 159.222 231.017 144.929 230.475 129.951C229.381 99.717 204.334 75.8596 174.2 75.8596Z" fill="#00227B"/>
<g opacity="0.35">
<g opacity="0.35">
<g opacity="0.35">
<g opacity="0.35">
<path opacity="0.35" d="M229.936 122.158C230.388 124.694 230.665 127.292 230.762 129.941C231.885 161.067 207.466 187.21 176.215 188.335C144.964 189.454 118.716 165.133 117.587 134.007C117.554 133.112 117.542 132.216 117.553 131.332C122.361 158.63 146.762 178.904 175.355 177.877C205.708 176.785 229.612 152.095 229.936 122.158Z" fill="#00227B"/>
</g>
</g>
</g>
</g>
<path d="M174.119 189.948C167.017 189.948 160.081 188.679 153.466 186.169C146.434 183.5 140.062 179.546 134.528 174.418C128.994 169.29 124.576 163.244 121.396 156.451C118.103 149.417 116.291 141.884 116.008 134.064C115.725 126.243 116.988 118.6 119.763 111.348C122.443 104.344 126.412 97.9969 131.561 92.4851C136.71 86.9733 142.778 82.5719 149.599 79.4055C156.662 76.1259 164.225 74.3206 172.076 74.0387C179.929 73.7568 187.602 75.0147 194.883 77.7788C201.916 80.4479 208.288 84.4018 213.822 89.5301C219.356 94.6584 223.774 100.704 226.954 107.497C230.247 114.531 232.059 122.064 232.342 129.884C232.625 137.705 231.362 145.348 228.587 152.6C225.907 159.604 221.937 165.951 216.789 171.463C211.64 176.975 205.57 181.375 198.75 184.543C191.687 187.822 184.124 189.627 176.273 189.909C175.553 189.935 174.834 189.948 174.119 189.948ZM174.201 77.1536C173.532 77.1536 172.865 77.1659 172.191 77.1896C141.861 78.2795 118.077 103.742 119.171 133.951C119.701 148.584 125.921 162.136 136.685 172.11C146.95 181.623 160.178 186.795 174.126 186.795C174.802 186.795 175.48 186.783 176.16 186.758C190.852 186.231 204.458 180.035 214.473 169.315C224.487 158.595 229.71 144.632 229.179 129.998C228.109 100.46 203.639 77.1536 174.201 77.1536Z" fill="#00227B"/>
<path d="M230.633 131.395C231.2 142.416 228.133 152.832 222.426 161.611C218.146 168.193 199.785 180.267 176.417 181.669C154.749 182.968 134.435 172.463 129.503 166.351C122.924 158.198 118.806 148.149 118.239 137.128C116.739 107.962 141.277 94.5871 172.315 93.0038C203.352 91.4206 229.133 102.229 230.633 131.395Z" fill="#3949AB"/>
<path d="M172.656 182.864C161.882 182.864 152.511 180.19 146.291 177.8C138.415 174.774 131.491 170.547 128.653 167.03C121.689 158.399 117.712 148.078 117.151 137.183C116.779 129.953 117.976 123.393 120.707 117.685C123.278 112.312 127.222 107.658 132.43 103.849C141.944 96.8899 155.717 92.7654 172.257 91.9222C188.799 91.079 202.922 93.78 213.1 99.7343C218.671 102.993 223.072 107.223 226.18 112.306C229.483 117.706 231.346 124.11 231.718 131.34C232.278 142.235 229.379 152.906 223.337 162.2C220.827 166.062 214.591 170.795 207.065 174.552C200.454 177.852 189.781 181.953 176.481 182.75C175.189 182.827 173.912 182.864 172.656 182.864ZM178.098 93.9373C176.225 93.9373 174.316 93.9865 172.369 94.0856C156.254 94.9076 142.889 98.8877 133.718 105.595C123.478 113.084 118.636 123.675 119.324 137.072C119.861 147.509 123.673 157.399 130.349 165.673C132.335 168.134 137.907 172.258 147.074 175.779C153.818 178.37 164.371 181.307 176.351 180.588C189.284 179.812 199.663 175.823 206.092 172.614C214.707 168.314 219.783 163.682 221.513 161.023C227.305 152.114 230.084 141.887 229.547 131.45C228.858 118.054 222.954 108.011 212 101.603C203.373 96.5563 191.735 93.9373 178.098 93.9373Z" fill="#00227B"/>
<g opacity="0.5">
<g opacity="0.5">
<g opacity="0.5">
<g opacity="0.5">
<path d="M219.36 129.287C220.066 123.82 217.415 118.975 213.438 118.465C209.461 117.954 205.664 121.973 204.957 127.44C204.25 132.906 206.902 137.752 210.879 138.262C214.856 138.772 218.653 134.753 219.36 129.287Z" fill="white"/>
</g>
</g>
</g>
</g>
<g opacity="0.5">
<g opacity="0.5">
<g opacity="0.5">
<g opacity="0.5">
<path d="M208.105 149.607C208.775 147.166 207.613 144.724 205.51 144.152C203.408 143.579 201.16 145.094 200.491 147.534C199.821 149.975 200.983 152.417 203.086 152.989C205.188 153.561 207.436 152.047 208.105 149.607Z" fill="white"/>
</g>
</g>
</g>
</g>
<g opacity="0.35">
<path d="M218.304 104.743C225.509 110.922 230.028 119.68 230.632 131.393C231.199 142.417 228.131 152.832 222.427 161.611C218.146 168.193 199.783 180.267 176.415 181.671C168.164 182.169 160.112 180.951 153.026 178.913C181.714 176.577 204.076 161.767 209.382 153.603C216.628 142.461 220.518 129.24 219.797 115.254C219.608 111.516 219.095 108.016 218.304 104.743Z" fill="#00227B"/>
</g>
<path d="M121.192 113.558C120.873 113.558 120.552 113.459 120.277 113.253C119.63 112.768 119.481 111.869 119.921 111.206C122.271 107.361 125.272 103.847 128.839 100.763C132.313 97.76 136.353 95.1385 140.846 92.971C145.245 90.8494 150.108 89.1498 155.298 87.9189C160.441 86.6996 165.931 85.9342 171.618 85.6441C177.211 85.3589 182.692 85.5515 187.907 86.2153C193.17 86.8856 198.174 88.0386 202.779 89.6407C207.491 91.2804 211.803 93.398 215.594 95.9342C219.491 98.5418 222.862 101.608 225.615 105.049C226.096 105.579 226.145 106.392 225.695 106.982C225.186 107.649 224.231 107.778 223.561 107.272L223.402 107.154L223.282 107.001C213.089 94.2043 194.314 87.524 171.774 88.6737C149.108 89.83 131.149 98.6311 122.5 112.82L122.461 112.885L122.409 112.953C122.111 113.349 121.654 113.558 121.192 113.558Z" fill="#00227B"/>
<g opacity="0.5">
<g opacity="0.5">
<g opacity="0.5">
<g opacity="0.5">
<path d="M131.751 153.834C131.751 153.834 121.203 125.525 136.182 113.265C151.161 101.004 173.563 99.9088 173.113 101.366C173.113 101.366 148.623 108.61 139.924 128.63C133.216 144.068 131.751 153.834 131.751 153.834Z" fill="white"/>
</g>
</g>
</g>
</g>
<path d="M225.49 291.508H125.067C121.815 291.508 119.179 288.882 119.179 285.644C119.179 283.778 120.698 282.265 122.572 282.265H227.985C229.859 282.265 231.378 283.778 231.378 285.644C231.378 288.883 228.742 291.508 225.49 291.508Z" fill="#E6E9FA"/>
<g opacity="0.3">
<g opacity="0.3">
<g opacity="0.3">
<g opacity="0.3">
<path opacity="0.3" d="M231.376 285.645C231.376 286.285 231.272 286.901 231.081 287.479C230.553 286.297 229.367 285.477 227.986 285.477H122.572C121.637 285.477 120.788 285.853 120.174 286.469C119.882 286.76 119.643 287.099 119.475 287.479C119.284 286.902 119.179 286.287 119.179 285.645C119.179 284.714 119.557 283.868 120.175 283.257C120.789 282.642 121.638 282.265 122.573 282.265H227.986C229.861 282.264 231.376 283.777 231.376 285.645Z" fill="white"/>
</g>
</g>
</g>
</g>
<g opacity="0.35">
<g opacity="0.35">
<g opacity="0.35">
<g opacity="0.35">
<path opacity="0.35" d="M231.376 285.645C231.376 287.262 230.718 288.731 229.651 289.789C228.588 290.851 227.113 291.507 225.49 291.507H125.069C121.817 291.507 119.178 288.883 119.178 285.645C119.178 285.022 119.347 284.437 119.646 283.934C120.536 286.032 122.632 287.508 125.068 287.508H225.489C227.113 287.508 228.588 286.853 229.65 285.79C230.181 285.26 230.612 284.631 230.907 283.934C231.208 284.437 231.376 285.022 231.376 285.645Z" fill="#00227B"/>
</g>
</g>
</g>
</g>
<path d="M225.491 292.999H125.068C120.996 292.999 117.683 289.7 117.683 285.645C117.683 282.96 119.877 280.775 122.572 280.775H227.986C230.681 280.775 232.875 282.96 232.875 285.645C232.875 289.699 229.562 292.999 225.491 292.999ZM122.571 283.757C121.526 283.757 120.676 284.603 120.676 285.645C120.676 288.056 122.645 290.018 125.067 290.018H225.491C227.912 290.018 229.882 288.056 229.882 285.645C229.882 284.604 229.032 283.757 227.986 283.757H122.571Z" fill="#00227B"/>
<path d="M237.24 216.244L227.418 282.263H123.142L122.786 279.875L113.315 216.244C113.004 214.154 114.632 212.279 116.75 212.279H233.804C235.927 212.279 237.55 214.154 237.24 216.244Z" fill="#FF66AC"/>
<path d="M237.24 216.244L227.418 282.263H123.142L122.786 279.875L113.315 216.244C113.004 214.154 114.632 212.279 116.75 212.279H233.804C235.927 212.279 237.55 214.154 237.24 216.244Z" fill="#E6E9FA"/>
<g opacity="0.5">
<g opacity="0.5">
<g opacity="0.5">
<g opacity="0.5">
<path opacity="0.5" d="M117.017 220.342C116.707 218.252 118.335 216.377 120.452 216.377H237.22L237.24 216.245C237.55 214.155 235.927 212.28 233.805 212.28H116.751C114.633 212.28 113.006 214.155 113.316 216.245L122.787 279.876L123.142 282.264H126.235L117.017 220.342Z" fill="white"/>
</g>
</g>
</g>
</g>
<g opacity="0.35">
<g opacity="0.35">
<g opacity="0.35">
<g opacity="0.35">
<path opacity="0.35" d="M230.514 212.279H222.294C225.411 223.651 223.691 249.332 203.585 262.753C178.344 279.602 132.855 279.494 123.198 279.875L123.553 282.263H224.127L233.949 216.244C234.259 214.154 232.636 212.279 230.514 212.279Z" fill="#00227B"/>
</g>
</g>
</g>
</g>
<path d="M228.707 283.757H121.85L111.837 216.462C111.624 215.037 112.045 213.595 112.989 212.504C113.934 211.413 115.305 210.788 116.751 210.788H233.807C235.253 210.788 236.624 211.413 237.568 212.504C238.513 213.595 238.933 215.037 238.721 216.462L228.707 283.757ZM124.433 280.774H226.125L235.76 216.024C235.846 215.45 235.683 214.891 235.302 214.451C234.921 214.011 234.39 213.769 233.807 213.769H116.751C116.168 213.769 115.637 214.012 115.256 214.451C114.875 214.891 114.712 215.45 114.798 216.024L124.433 280.774Z" fill="#00227B"/>
<g opacity="0.3">
<g opacity="0.3">
<g opacity="0.3">
<g opacity="0.3">
<path opacity="0.3" d="M131.442 266.839C127.486 258.155 124.606 243.329 125.255 234.604C125.904 225.88 130.985 228.549 132.559 239.725C136.75 269.469 133.208 270.717 131.442 266.839Z" fill="white"/>
</g>
</g>
</g>
</g>
<path d="M188.902 239.781C189.03 238.667 189.178 237.54 188.958 236.406C188.86 236.283 188.771 236.157 188.673 236.034C188.349 235.918 188.033 235.766 187.696 235.682C185.323 235.071 182.917 234.83 180.474 235.04C177.287 235.313 174.362 236.292 171.847 238.31C170.936 239.038 170.106 239.86 169.256 240.657C169.028 240.873 168.853 240.964 168.533 240.818C167.78 240.477 166.969 240.324 166.145 240.283C163.936 240.183 161.965 240.895 160.126 242.044C158.133 243.295 156.527 244.966 155.032 246.755C154.395 247.513 154.642 248.358 155.59 248.676C156.188 248.871 156.787 249.062 157.385 249.257C158.818 249.719 160.248 250.177 161.677 250.638C161.674 250.683 161.678 250.705 161.671 250.728C161.66 250.755 161.647 250.787 161.628 250.814C161.031 251.578 161.176 252.285 161.805 252.948C161.872 253.022 161.93 253.11 161.99 253.189C162.319 253.62 162.655 254.056 163.004 254.505C162.528 254.872 162.06 255.183 161.646 255.559C161.437 255.749 161.253 256.024 161.174 256.297C161.039 256.737 161.268 257.187 161.661 257.418C162.079 257.668 162.508 257.657 162.896 257.378C163.389 257.029 163.86 256.651 164.361 256.27C164.834 256.891 165.282 257.478 165.732 258.059C166.248 258.72 166.604 258.833 167.403 258.613C167.549 258.568 167.693 258.536 167.865 258.495C167.877 258.665 167.89 258.802 167.897 258.93C167.999 260.988 168.093 263.05 168.206 265.103C168.258 266.076 169.03 266.536 169.913 266.119C170.71 265.745 171.507 265.348 172.288 264.926C174.089 263.95 175.728 262.755 177.036 261.166C178.672 259.167 179.578 256.933 179.154 254.295C179.136 254.191 179.223 254.013 179.314 253.96C180.117 253.444 180.941 252.961 181.745 252.442C183.562 251.263 185.022 249.73 186.164 247.9C187.716 245.411 188.572 242.68 188.902 239.781ZM162.859 248.689C161.205 248.152 159.489 247.595 157.727 247.024C159.548 245.096 161.475 243.413 164.07 242.702C165.191 242.395 166.487 242.421 167.252 242.731C165.799 244.706 164.343 246.681 162.859 248.689ZM176.776 257.16C176.356 258.496 175.553 259.585 174.564 260.555C173.335 261.747 171.904 262.637 170.357 263.448C170.264 261.555 170.169 259.703 170.075 257.89C172.414 256.983 174.701 256.099 177 255.209C177.089 255.84 176.98 256.509 176.776 257.16ZM185.414 244.486C184.661 246.255 183.674 247.866 182.265 249.2C181.178 250.224 179.946 251.045 178.647 251.775C175.128 253.754 171.355 255.118 167.498 256.272C167.31 256.326 167.194 256.316 167.07 256.144C166.801 255.763 166.499 255.396 166.215 255.02C166.196 254.999 166.189 254.963 166.162 254.896C166.261 254.818 166.366 254.74 166.472 254.659C168.673 252.975 170.885 251.298 173.086 249.611C173.722 249.13 173.75 248.304 173.161 247.827C172.75 247.491 172.208 247.496 171.733 247.852C170.408 248.858 169.087 249.865 167.765 250.875C166.78 251.626 165.802 252.373 164.779 253.155C164.428 252.698 164.089 252.28 163.782 251.841C163.731 251.763 163.783 251.564 163.854 251.467C165.027 249.723 166.191 247.97 167.412 246.257C168.62 244.555 169.993 242.984 171.503 241.541C172.919 240.178 174.455 238.975 176.31 238.258C177.5 237.797 178.727 237.483 179.995 237.348C180.11 237.332 180.277 237.446 180.359 237.552C181.648 239.212 182.922 240.875 184.199 242.541C184.583 243.037 184.961 243.542 185.356 244.032C185.475 244.18 185.489 244.306 185.414 244.486ZM186.178 242.163C184.904 240.501 183.66 238.884 182.415 237.26C182.416 237.223 182.427 237.18 182.433 237.14C183.883 237.313 185.337 237.49 186.806 237.665C186.779 239.241 186.545 240.684 186.178 242.163Z" fill="#00227B"/>
<path d="M185.358 244.032C184.962 243.542 184.585 243.036 184.201 242.54C182.924 240.874 181.65 239.211 180.361 237.551C180.279 237.445 180.112 237.331 179.997 237.347C178.729 237.482 177.502 237.796 176.312 238.258C174.456 238.975 172.921 240.178 171.505 241.54C169.995 242.983 168.622 244.554 167.414 246.256C166.193 247.97 165.029 249.723 163.856 251.466C163.785 251.563 163.733 251.762 163.785 251.84C164.09 252.28 164.429 252.697 164.781 253.154C165.804 252.372 166.782 251.624 167.768 250.874C169.089 249.864 170.41 248.857 171.735 247.851C172.21 247.496 172.751 247.491 173.163 247.826C173.752 248.304 173.725 249.13 173.088 249.611C170.887 251.297 168.675 252.975 166.474 254.658C166.368 254.739 166.262 254.817 166.164 254.895C166.191 254.963 166.198 254.998 166.217 255.019C166.501 255.395 166.803 255.762 167.072 256.143C167.197 256.316 167.312 256.325 167.5 256.271C171.357 255.117 175.13 253.753 178.649 251.774C179.947 251.045 181.18 250.223 182.267 249.199C183.675 247.865 184.663 246.254 185.416 244.485C185.49 244.306 185.475 244.18 185.358 244.032ZM181.495 246.569C179.813 247.832 177.432 247.523 176.168 245.87C174.896 244.219 175.217 241.849 176.884 240.569C178.52 239.314 180.902 239.638 182.178 241.29C183.44 242.931 183.132 245.336 181.495 246.569Z" fill="white"/>
<path d="M186.178 242.162C184.903 240.503 183.659 238.885 182.414 237.26C182.419 237.222 182.427 237.182 182.433 237.14C183.883 237.314 185.338 237.491 186.808 237.666C186.78 239.239 186.544 240.684 186.178 242.162Z" fill="#DB2C2C"/>
<path d="M167.253 242.732C165.798 244.704 164.342 246.681 162.86 248.69C161.203 248.15 159.487 247.595 157.726 247.024C159.548 245.095 161.474 243.411 164.069 242.702C165.191 242.394 166.485 242.421 167.253 242.732Z" fill="#DB2C2C"/>
<path d="M174.562 260.555C173.334 261.748 171.904 262.639 170.356 263.448C170.262 261.557 170.168 259.705 170.075 257.89C172.414 256.984 174.7 256.101 177.002 255.208C177.09 255.841 176.979 256.508 176.778 257.161C176.357 258.498 175.554 259.585 174.562 260.555Z" fill="#DB2C2C"/>
<path d="M182.177 241.29C180.902 239.638 178.519 239.315 176.883 240.569C175.216 241.85 174.895 244.219 176.167 245.87C177.43 247.523 179.812 247.832 181.494 246.569C183.131 245.336 183.439 242.931 182.177 241.29ZM180.36 245.175C179.508 245.818 178.256 245.648 177.592 244.8C176.905 243.926 177.092 242.641 178.001 241.969C178.853 241.333 180.129 241.517 180.77 242.37C181.44 243.256 181.255 244.501 180.36 245.175Z" fill="#00227B"/>
<path d="M180.359 245.175C179.507 245.818 178.255 245.648 177.589 244.799C176.905 243.926 177.09 242.641 178 241.969C178.853 241.335 180.127 241.517 180.768 242.368C181.438 243.256 181.256 244.502 180.359 245.175Z" fill="#22A7F0"/>
<path d="M236.722 219.728C236.722 219.728 228.641 215.908 221.052 219.334C213.785 222.615 208.643 245.975 218.059 251.893C223.87 255.545 227.826 252.319 231.114 253.266C235.99 254.671 245.995 230.618 236.722 219.728Z" fill="white"/>
<g opacity="0.35">
<path d="M240.369 234.93C239.411 244.721 234.221 254.161 231.115 253.266C227.826 252.32 223.871 255.547 218.059 251.895C213.561 249.066 212.386 242.261 213.18 235.559C213.714 239.469 215.23 242.819 218.059 244.597C223.871 248.245 227.74 246.55 231.115 245.969C235.287 245.249 238.688 240.71 240.369 234.93Z" fill="#00227B"/>
</g>
<path d="M224.018 255.17C222.057 255.17 219.788 254.743 217.26 253.154C214.996 251.731 213.361 249.429 212.401 246.312C211.595 243.696 211.294 240.509 211.529 237.094C211.808 233.05 212.807 228.901 214.34 225.411C215.511 222.746 217.52 219.292 220.433 217.976C228.561 214.307 237.007 218.212 237.363 218.38L237.654 218.518L237.862 218.763C242.106 223.747 242.351 230.633 241.809 235.531C241.199 241.05 239.243 246.905 236.705 250.81C234.162 254.722 232.034 255.084 230.696 254.699C229.828 254.449 228.731 254.623 227.461 254.826C226.457 254.986 225.304 255.17 224.018 255.17ZM227.969 219.394C225.695 219.394 223.586 219.828 221.67 220.693C220.095 221.404 218.422 223.56 217.084 226.608C215.705 229.745 214.769 233.641 214.516 237.3C214.071 243.759 215.653 248.619 218.857 250.633C222.088 252.664 224.58 252.266 226.99 251.882C228.547 251.634 230.018 251.399 231.53 251.835C231.703 251.865 232.949 251.386 234.705 248.355C238.802 241.287 241.4 227.939 235.796 220.951C235.16 220.688 233.526 220.069 231.386 219.699C230.211 219.496 229.07 219.394 227.969 219.394Z" fill="#00227B"/>
<path d="M259.322 134.695C256.44 131.727 254.472 127.832 253.948 123.416C252.673 112.697 260.364 102.978 271.127 101.708C281.889 100.439 291.647 108.099 292.922 118.819C294.196 129.539 286.505 139.258 275.742 140.527C272.749 140.88 269.834 140.54 267.157 139.638L258.74 143.593L259.322 134.695Z" fill="#FF0068"/>
<g opacity="0.5">
<path opacity="0.5" d="M271.571 105.441C261.517 106.627 254.145 115.186 254.257 125.046C254.103 124.374 253.98 123.689 253.896 122.99C252.622 112.271 260.313 102.552 271.075 101.282C281.838 100.013 291.596 107.673 292.87 118.393C292.954 119.096 292.997 119.793 293.005 120.486C290.805 110.868 281.627 104.255 271.571 105.441Z" fill="white"/>
</g>
<path d="M258.74 145.027C258.455 145.027 258.172 144.943 257.929 144.778C257.508 144.492 257.269 144.006 257.302 143.499L257.844 135.222C254.877 131.977 253.039 127.968 252.517 123.584C251.856 118.019 253.409 112.531 256.892 108.13C260.374 103.729 265.369 100.942 270.957 100.283C276.544 99.6245 282.054 101.172 286.472 104.64C290.891 108.109 293.689 113.084 294.35 118.649C295.012 124.214 293.459 129.702 289.976 134.103C286.493 138.504 281.498 141.291 275.911 141.95C272.969 142.296 270.06 142.036 267.255 141.175L259.353 144.888C259.158 144.982 258.949 145.027 258.74 145.027ZM273.447 103.006C272.736 103.006 272.019 103.047 271.296 103.133C266.473 103.701 262.161 106.107 259.153 109.906C256.147 113.706 254.805 118.444 255.377 123.247C255.848 127.215 257.57 130.829 260.356 133.697C260.639 133.988 260.785 134.384 260.758 134.788L260.334 141.258L266.541 138.341C266.878 138.183 267.264 138.161 267.617 138.28C270.186 139.146 272.862 139.423 275.572 139.104C285.53 137.929 292.67 128.905 291.491 118.989C290.398 109.791 282.526 103.006 273.447 103.006Z" fill="#00227B"/>
<g opacity="0.3">
<path opacity="0.3" d="M259.173 134.536C265.411 137.785 273.072 138.109 279.847 134.731C287.362 130.984 291.869 123.642 292.332 115.846C292.601 116.806 292.8 117.798 292.921 118.819C294.196 129.539 286.504 139.258 275.742 140.527C272.749 140.88 269.833 140.54 267.156 139.638L258.739 143.593L259.322 134.695C259.271 134.642 259.223 134.588 259.173 134.536Z" fill="#00227B"/>
</g>
<path d="M267.228 115.629C268.926 113.938 271.68 114.241 273.378 115.932L273.642 116.195L273.906 115.932C275.604 114.241 278.358 113.938 280.056 115.629C281.754 117.32 281.754 120.063 280.056 121.754L279.792 122.018L274.453 127.335C274.006 127.781 273.28 127.781 272.832 127.335L267.493 122.018L267.229 121.754C265.53 120.062 265.53 117.32 267.228 115.629Z" fill="white"/>
<defs>
<filter id="filter0_d_0_1" x="67" y="81" width="229" height="229" filterUnits="userSpaceOnUse" color-interpolation-filters="sRGB">
<feFlood flood-opacity="0" result="BackgroundImageFix"/>
<feColorMatrix in="SourceAlpha" type="matrix" values="0 0 0 0 0 0 0 0 0 0 0 0 0 0 0 0 0 0 127 0" result="hardAlpha"/>
<feOffset dy="4"/>
<feGaussianBlur stdDeviation="2"/>
<feComposite in2="hardAlpha" operator="out"/>
<feColorMatrix type="matrix" values="0 0 0 0 0 0 0 0 0 0 0 0 0 0 0 0 0 0 0.25 0"/>
<feBlend mode="normal" in2="BackgroundImageFix" result="effect1_dropShadow_0_1"/>
<feBlend mode="normal" in="SourceGraphic" in2="effect1_dropShadow_0_1" result="shape"/>
</filter>
</defs>
</svg>
