<svg xmlns="http://www.w3.org/2000/svg" width="256" height="256" viewBox="0 0 256 256" id="main-coworkers-2-large" data-supported-dps="256x256">
  <path d="M253.41 0v.07C148.33 2.78 64 87.67 64 192h192V0z" fill="#f1f4e4"/>
  <rect x="126" y="70" width="104" height="68" rx="6.53" fill="#9db3c8"/>
  <path fill="#c0d1e2" d="M168 100h22v48h-22z"/>
  <circle cx="178.97" cy="113" r="5" fill="#788fa5"/>
  <path fill="#d6cec2" d="M44 148h204v20H44z"/>
  <path fill="#0d2135" d="M141 148h-38.06v-2h36.08l9.74-32.33h2.68L141 148z"/>
  <path d="M136.84 223.88l-12.06 5.81c.8 2 6.19 14.33 6.19 14.33l31.44-14.68a5.22 5.22 0 00-4.27-3.08c-7.99-.75-19.75 1.87-21.3-2.38z" fill="#5b696b"/>
  <path d="M161.88 228.08l1.12 2.53-31.44 14.68s-.45-1-1.1-2.54z" fill="#dce6f1"/>
  <path d="M112.59 100.19s-1-1.5-3.19-.18-7.73 4.6-7.73 4.6 3.69-4.16 2.21-5.39a.47.47 0 00-.76 0l-4.46 6c-1.74 2.39-1.14 4.8-5.28 7-.42.24-2 1-2.46 1.23l-1.32.62-20.43 9.5 3.58 14.49 25.53-21.46c3-1.57 9.64-3.52 11.27-6.21l2.87-3.93s2.24-3.43 1.44-4.44c.68-.84.23-2.44-1.27-1.83z" fill="#bf7461"/>
  <path d="M86 184h14c3.92 0 6.45 4.4 8 8l18 40 24-12-18.8-44.09a23.9 23.9 0 00-10.16-13c-8.73-5.23-21.63-7.74-35-9.4l-4.87-.94z" fill="#a43c4a"/>
  <path d="M72.74 73.47C72.55 65.86 66.29 59 58.41 59 47.08 58.78 41.76 74.62 48 84a14.13 14.13 0 01-.72 17.61l.28.13 12.89 7.45 7.47-1.79s-6.33-14.53-.15-17.05c4.64-1.88 5-1.91 4.87-6.76-.18-2.72 1.87-2.37 1.87-4 0-1.38-1.42-2.99-1.77-6.12z" fill="#bf7461"/>
  <path d="M36.25 150.82V126.6c0-15.79 10.27-24.58 13.66-28.84 8.25 2.1 10.13 9.82 18 9.64l6.59 10.94c4.53 7.54-.05 17.53 2.33 22.76s5.58 11.69 5.58 11.69z" fill="#f3ba64"/>
  <path d="M118.59 130.89l-10.18-2.78a3.08 3.08 0 00-2.74.57c-2.4 1.68-5.81 5.55-9 5.32H58.08l.5 4.32c1.12 5.77 8 7.31 13.42 5.93l24.28-4.37c1.94-.1 5.16.2 6.8-1.11l4.74-2.45c.78-.38.4-1.7-.46-1.53l-1 .18 1.51-2.07 3.74 2.2c1.19.69 2.24-1.14 1.16-1.91l-.74-.57 6.16.52a1.18 1.18 0 00.4-2.25z" fill="#bf7461"/>
  <path d="M59 58.4c-8.45-.09-17 6.72-14.54 17.12-8.42-6.67-20.61 1.16-19.72 13.77 1.11 15.27-5.74 16.93-5.74 16.93 26 3.86 16.18-17.07 26.37-23.09 4.2 7 12.36 2.82 10.67-4.88-1.1-4.69 5.64-6.47 6.78-1.73a13.39 13.39 0 006.86-5.42 7.41 7.41 0 00-1.64-9.76A14.06 14.06 0 0059 58.4z" fill="#61382d"/>
  <path d="M96.56 118.08l-3.28 2.77-3.68-6.74 1.32-.62 1.89-.93.57-.3z" fill="#38434f"/>
  <path d="M131.29 247.18l-18.45-42a11.48 11.48 0 00-10.51-6.86h-1.43v-2h1.43a13.48 13.48 0 0112.34 8l17.64 40.13 13.86-6.32.83 1.87zM86.27 218h14.63v2H86.27z" fill="#b9af9f"/>
  <path d="M102 242.32h-2v-58.77a11.39 11.39 0 00-11.37-11.37H73.78v-2h14.85A13.39 13.39 0 01102 183.55z" fill="#b9af9f"/>
  <path fill="#b9af9f" d="M86.27 184H100v2H86.27zM40 179.48L31.11 131a6.18 6.18 0 00-6.95-5l-3.4.46-.33-2.46 3.4-.47a8.63 8.63 0 019.69 7L42.4 179z"/>
  <path d="M88 158v66.9a7.1 7.1 0 01-7.1 7.1H53.26l-14.89-74z" fill="#dbe7e9"/>
  <path d="M88 154.76V158H38.19L36 146h43.6a8.59 8.59 0 018.4 8.76z" fill="#e09f7d"/>
  <circle cx="42" cy="214" r="42" fill="#f1f4e4"/>
  <path d="M42 175a39 39 0 11-39 39 39 39 0 0139-39m0-3a42 42 0 1042 42 42 42 0 00-42-42z" fill="#6e6558"/>
  <path d="M79.24 202.42l.9 3.21-19.72 7.68a33.93 33.93 0 00-19 18.95l-7.5 20-3.19-.83 3.14-21.15A34 34 0 0027 204.35L13.42 187.5l2.36-2.32 16.73 13.65a33.94 33.94 0 0025.89 6.93z" fill="#e09f7d"/>
  <circle cx="42.21" cy="213.99" r="5" fill="#dbe7e9"/>
  <path d="M7.66 129.07a2.06 2.06 0 01-.27-4.1l15-2a2.06 2.06 0 01.53 4.08l-15 2z" fill="#6e6558"/>
  <path d="M222.29 242.18h9.54l3.54 11.5a1.79 1.79 0 01-1.71 2.32h-27.21v-1.12a3.47 3.47 0 011.48-2.88c6.13-4.21 14.74-5 14.36-9.82z" fill="#3c4345"/>
  <path d="M195.56 242.18h9.54l3.53 11.5a1.79 1.79 0 01-1.71 2.32h-27.21v-1.12a3.47 3.47 0 011.48-2.88c6.13-4.21 14.75-5 14.37-9.82z" fill="#5b696b"/>
  <path fill="#788fa5" d="M168 142h36v8h-36z"/>
  <path d="M234.87 237.8l-14.05-55h-30.49l21.91 60.09H231a4 4 0 003.87-5.09z" fill="#8f5849"/>
  <path d="M187 137.63a17.7 17.7 0 01-7.34-.82 2.92 2.92 0 00-2.79.67l-2.76 2.52a1.72 1.72 0 00-.43 1.91l1 2.41c.29 1 1.89 1.31 2.71 1.7s1.46-.64 1.14-1.32c.95.63 2.28 1.8 3.48 1.06 0 0 1.51-1 1.59-1.44a4.93 4.93 0 005.78-.64l24.19 1.77.23-13.62s-20 4.91-26.8 5.8z" fill="#ffdac7"/>
  <path d="M177.89 146.65h2.62l-3.39-15a1.27 1.27 0 00-1.25-1 1.28 1.28 0 00-1.24 1.56z" fill="#1d2226"/>
  <ellipse cx="177.68" cy="145.12" rx=".91" ry=".96" fill="#ffe2cc"/>
  <path fill="#ffe2cc" d="M178.05 144.24l-1.83-.84-.54 1.96 1.62.63.75-1.75z"/>
  <path d="M232 84c.3-1.49 3.2-12.61 2.78-15.58a14.14 14.14 0 00-16.4-11.93 11.71 11.71 0 00-8.62 5.51 15.3 15.3 0 00-2.61 9.16c.05.41.07.79.08 1.15.08 3.07-1.07 4.85-.87 6.24.22 1.55 2.17.89 2.38 3.58.58 4.77.88 4.91 5.72 5.87s1.31 10.87 1.31 10.87l20.34-3c-3.61-5.51-5.25-6.15-4.11-11.87z" fill="#ffdac7"/>
  <path d="M251.35 125.31c-.93-14.18-10-24.14-15.23-29.55l-3.78-6.92-17.23 4.93a4.48 4.48 0 00-2.88 5.85l1.36 3.81c-4.46 9-12 24.13-8.85 53.6L252 156s.54-12.65-.65-30.69z" fill="#493d57"/>
  <path d="M204 182.6l13.49 55.24a4.05 4.05 0 01-3.94 5h-21.43l-16-56.91C172.17 170.87 183 156 197.83 156H252c-.13 26-21.46 26.6-21.46 26.6H204" fill="#be7b6a"/>
  <path d="M222 138l-23.25 14.14a5 5 0 01-2.54.69c-2 0-4.59-.27-6 1.43l-7.11 7.36a1.39 1.39 0 000 1.93 1.26 1.26 0 001.61.14l6.79-4.74c1.38-1.11 3.34-.65 4.91-.32.83 1.29 33.73-9 35.35-9.13 4.51-1.26 8.21-6.66 8.21-11.5z" fill="#ffdac7"/>
  <rect x="208.53" y="71.23" width="1.06" height="6.38" rx=".53" fill="#b24020"/>
  <path fill="#b24020" d="M217.84 74.09v1.07h-8.59v-1.07z"/>
  <path d="M207.85 67.16c4.57 0 10.08.54 10 10.44 1.76-.13 1.59-2.84 3.58-3.74 2.55-1.15 5-.12 5.6 2.29.93 3.47 1.29 6.52 2.48 8.21a1.6 1.6 0 002.87-.52 37 37 0 012.72-7c3.68-7.7 1.08-14.16-3-17.69a17.16 17.16 0 00-16.18-2.91c-4 1.26-8.07 4.37-9.73 8.42a1.85 1.85 0 001.66 2.5z" fill="#1d2226"/>
  <rect x="192" y="180" width="58" height="12" rx="5.53" fill="#b6d094"/>
  <path fill="#d6cec2" d="M203.53 192l-14.31 64h5.43l16.28-64h-7.4zM240.47 192l14.31 64h-5.43l-16.28-64h7.4z"/>
  <circle cx="101" cy="242" r="14" fill="#6e6558"/>
  <circle cx="101" cy="242" r="11" fill="#e09f7d"/>
  <circle cx="101" cy="242" r="5" fill="#dbe7e9"/>
</svg>
