<svg width="575" height="661" viewBox="0 0 575 661" fill="none" xmlns="http://www.w3.org/2000/svg">
<g filter="url(#filter0_d_65_17983)">
<path d="M101.255 534.993L61.1826 476.346L198.81 409.992L238.882 468.639L101.255 534.993Z" fill="url(#paint0_linear_65_17983)"/>
<path d="M100.842 535.275L101.084 535.631L101.472 535.444L239.099 469.089L239.623 468.837L239.295 468.357L199.223 409.71L198.98 409.355L198.593 409.542L60.9655 475.896L60.4418 476.148L60.7698 476.628L100.842 535.275Z" stroke="url(#paint1_linear_65_17983)"/>
</g>
<g filter="url(#filter1_d_65_17983)">
<path d="M115.349 142.286H39.6816V505.66H115.349V142.286Z" fill="url(#paint2_linear_65_17983)"/>
<path d="M115.849 142.286V141.786H115.349H39.6816H39.1816V142.286V505.66V506.16H39.6816H115.349H115.849V505.66V142.286Z" stroke="url(#paint3_linear_65_17983)"/>
</g>
<g filter="url(#filter2_d_65_17983)">
<path d="M529.042 307.457H476.542V493.594H529.042V307.457Z" fill="url(#paint4_linear_65_17983)"/>
<path d="M529.542 307.457V306.957H529.042H476.542H476.042V307.457V493.594V494.094H476.542H529.042H529.542V493.594V307.457Z" stroke="url(#paint5_linear_65_17983)"/>
</g>
<g filter="url(#filter3_d_65_17983)">
<path d="M511.689 428.034L568.986 511.889L280.453 651.001L223.156 567.143L511.689 428.034Z" fill="url(#paint6_linear_65_17983)"/>
<path d="M512.102 427.752L511.859 427.397L511.472 427.584L222.939 566.693L222.415 566.945L222.743 567.425L280.04 651.283L280.283 651.638L280.67 651.451L569.203 512.339L569.726 512.087L569.398 511.607L512.102 427.752Z" stroke="url(#paint7_linear_65_17983)"/>
</g>
<g filter="url(#filter4_d_65_17983)">
<path d="M6 499.818L63.97 423.719L342.098 573.218L284.128 649.315L6 499.818Z" fill="url(#paint8_linear_65_17983)"/>
<path d="M5.60226 499.515L5.24725 499.981L5.76327 500.258L283.891 649.755L284.267 649.957L284.526 649.618L342.495 573.521L342.85 573.055L342.334 572.778L64.2067 423.279L63.8308 423.077L63.5723 423.416L5.60226 499.515Z" stroke="url(#paint9_linear_65_17983)"/>
</g>
<g filter="url(#filter5_d_65_17983)">
<path d="M164.89 225.188L238.577 187.029L166.475 87.8365L92.7881 125.996L164.89 225.188Z" fill="url(#paint10_linear_65_17983)"/>
<path d="M164.486 225.482L164.738 225.83L165.12 225.632L238.807 187.473L239.323 187.205L238.981 186.735L166.879 87.5425L166.626 87.1948L166.245 87.3925L92.5582 125.552L92.0416 125.819L92.3836 126.29L164.486 225.482Z" stroke="url(#paint11_linear_65_17983)"/>
</g>
<g filter="url(#filter6_d_65_17983)">
<path d="M63.3018 224.966L6 141.111L294.532 2.00003L351.834 85.8554L63.3018 224.966Z" fill="url(#paint12_linear_65_17983)"/>
<path d="M62.889 225.248L63.1316 225.603L63.519 225.417L352.051 86.3058L352.575 86.0533L352.247 85.5733L294.945 1.71793L294.703 1.36289L294.315 1.54964L5.78285 140.66L5.25918 140.913L5.58718 141.393L62.889 225.248Z" stroke="url(#paint13_linear_65_17983)"/>
</g>
<g filter="url(#filter7_d_65_17983)">
<path d="M238.696 186.904H152.528V473.484H238.696V186.904Z" fill="url(#paint14_linear_65_17983)"/>
<path d="M239.196 186.904V186.404H238.696H152.528H152.028V186.904V473.484V473.984H152.528H238.696H239.196V473.484V186.904Z" stroke="url(#paint15_linear_65_17983)"/>
</g>
<g filter="url(#filter8_d_65_17983)">
<path d="M530.879 346.872V304.4H439.462V346.872H530.879Z" fill="url(#paint16_linear_65_17983)"/>
<path d="M530.879 347.372H531.379V346.872V304.4V303.9H530.879H439.462H438.962V304.4V346.872V347.372H439.462H530.879Z" stroke="url(#paint17_linear_65_17983)"/>
</g>
<g filter="url(#filter9_d_65_17983)">
<path d="M188.319 265.833L188.553 266.127L188.901 265.983L324.338 209.974L324.952 209.72L324.538 209.2L297.643 175.438L297.409 175.144L297.061 175.288L161.624 231.297L161.01 231.551L161.424 232.071L188.319 265.833Z" fill="#2563EB" stroke="white"/>
<path d="M213.652 232.041V231.541H213.152H177.404H176.904V232.041V415.567V416.067H177.404H213.152H213.652V415.567V232.041Z" fill="#2563EB" stroke="white"/>
<path d="M149.512 412.489L149.098 413.008L149.712 413.262L296.002 473.758L296.35 473.902L296.584 473.608L336.208 423.873L336.622 423.353L336.008 423.099L189.718 362.603L189.37 362.459L189.136 362.753L149.512 412.489Z" fill="#2563EB" stroke="white"/>
<path d="M416.218 232.041V231.541H415.718H382.719H382.219V232.041V404V404.5H382.719H415.718H416.218V404V232.041Z" fill="#2563EB" stroke="white"/>
<path d="M428.634 237.958L429.082 237.454L428.47 237.172L295.734 175.975L295.397 175.819L295.151 176.097L267.942 206.735L267.494 207.239L268.106 207.521L400.841 268.718L401.178 268.874L401.425 268.596L428.634 237.958Z" fill="#2563EB" stroke="white"/>
<g filter="url(#filter10_d_65_17983)">
<path d="M432.217 410.256L389.315 361.953L253.015 424.794L295.912 473.098L432.217 410.256Z" fill="#2563EB"/>
<path d="M432.427 410.71L433.039 410.428L432.591 409.924L389.689 361.62L389.443 361.343L389.106 361.498L252.805 424.34L252.193 424.622L252.641 425.126L295.538 473.43L295.785 473.707L296.122 473.552L432.427 410.71Z" stroke="white"/>
</g>
</g>
<defs>
<filter id="filter0_d_65_17983" x="55.7012" y="408.718" width="188.662" height="135.55" filterUnits="userSpaceOnUse" color-interpolation-filters="sRGB">
<feFlood flood-opacity="0" result="BackgroundImageFix"/>
<feColorMatrix in="SourceAlpha" type="matrix" values="0 0 0 0 0 0 0 0 0 0 0 0 0 0 0 0 0 0 127 0" result="hardAlpha"/>
<feOffset dy="4"/>
<feGaussianBlur stdDeviation="2"/>
<feColorMatrix type="matrix" values="0 0 0 0 0 0 0 0 0 0 0 0 0 0 0 0 0 0 0.07 0"/>
<feBlend mode="normal" in2="BackgroundImageFix" result="effect1_dropShadow_65_17983"/>
<feBlend mode="normal" in="SourceGraphic" in2="effect1_dropShadow_65_17983" result="shape"/>
</filter>
<filter id="filter1_d_65_17983" x="34.6816" y="141.286" width="85.667" height="373.373" filterUnits="userSpaceOnUse" color-interpolation-filters="sRGB">
<feFlood flood-opacity="0" result="BackgroundImageFix"/>
<feColorMatrix in="SourceAlpha" type="matrix" values="0 0 0 0 0 0 0 0 0 0 0 0 0 0 0 0 0 0 127 0" result="hardAlpha"/>
<feOffset dy="4"/>
<feGaussianBlur stdDeviation="2"/>
<feColorMatrix type="matrix" values="0 0 0 0 0 0 0 0 0 0 0 0 0 0 0 0 0 0 0.07 0"/>
<feBlend mode="normal" in2="BackgroundImageFix" result="effect1_dropShadow_65_17983"/>
<feBlend mode="normal" in="SourceGraphic" in2="effect1_dropShadow_65_17983" result="shape"/>
</filter>
<filter id="filter2_d_65_17983" x="471.542" y="306.457" width="62.5" height="196.138" filterUnits="userSpaceOnUse" color-interpolation-filters="sRGB">
<feFlood flood-opacity="0" result="BackgroundImageFix"/>
<feColorMatrix in="SourceAlpha" type="matrix" values="0 0 0 0 0 0 0 0 0 0 0 0 0 0 0 0 0 0 127 0" result="hardAlpha"/>
<feOffset dy="4"/>
<feGaussianBlur stdDeviation="2"/>
<feColorMatrix type="matrix" values="0 0 0 0 0 0 0 0 0 0 0 0 0 0 0 0 0 0 0.07 0"/>
<feBlend mode="normal" in2="BackgroundImageFix" result="effect1_dropShadow_65_17983"/>
<feBlend mode="normal" in="SourceGraphic" in2="effect1_dropShadow_65_17983" result="shape"/>
</filter>
<filter id="filter3_d_65_17983" x="217.675" y="426.76" width="356.792" height="233.515" filterUnits="userSpaceOnUse" color-interpolation-filters="sRGB">
<feFlood flood-opacity="0" result="BackgroundImageFix"/>
<feColorMatrix in="SourceAlpha" type="matrix" values="0 0 0 0 0 0 0 0 0 0 0 0 0 0 0 0 0 0 127 0" result="hardAlpha"/>
<feOffset dy="4"/>
<feGaussianBlur stdDeviation="2"/>
<feColorMatrix type="matrix" values="0 0 0 0 0 0 0 0 0 0 0 0 0 0 0 0 0 0 0.07 0"/>
<feBlend mode="normal" in2="BackgroundImageFix" result="effect1_dropShadow_65_17983"/>
<feBlend mode="normal" in="SourceGraphic" in2="effect1_dropShadow_65_17983" result="shape"/>
</filter>
<filter id="filter4_d_65_17983" x="0.494141" y="422.434" width="347.109" height="236.166" filterUnits="userSpaceOnUse" color-interpolation-filters="sRGB">
<feFlood flood-opacity="0" result="BackgroundImageFix"/>
<feColorMatrix in="SourceAlpha" type="matrix" values="0 0 0 0 0 0 0 0 0 0 0 0 0 0 0 0 0 0 127 0" result="hardAlpha"/>
<feOffset dy="4"/>
<feGaussianBlur stdDeviation="2"/>
<feColorMatrix type="matrix" values="0 0 0 0 0 0 0 0 0 0 0 0 0 0 0 0 0 0 0.07 0"/>
<feBlend mode="normal" in2="BackgroundImageFix" result="effect1_dropShadow_65_17983"/>
<feBlend mode="normal" in="SourceGraphic" in2="effect1_dropShadow_65_17983" result="shape"/>
</filter>
<filter id="filter5_d_65_17983" x="87.2949" y="86.5532" width="156.774" height="147.918" filterUnits="userSpaceOnUse" color-interpolation-filters="sRGB">
<feFlood flood-opacity="0" result="BackgroundImageFix"/>
<feColorMatrix in="SourceAlpha" type="matrix" values="0 0 0 0 0 0 0 0 0 0 0 0 0 0 0 0 0 0 127 0" result="hardAlpha"/>
<feOffset dy="4"/>
<feGaussianBlur stdDeviation="2"/>
<feColorMatrix type="matrix" values="0 0 0 0 0 0 0 0 0 0 0 0 0 0 0 0 0 0 0.07 0"/>
<feBlend mode="normal" in2="BackgroundImageFix" result="effect1_dropShadow_65_17983"/>
<feBlend mode="normal" in="SourceGraphic" in2="effect1_dropShadow_65_17983" result="shape"/>
</filter>
<filter id="filter6_d_65_17983" x="0.518555" y="0.725746" width="356.797" height="233.515" filterUnits="userSpaceOnUse" color-interpolation-filters="sRGB">
<feFlood flood-opacity="0" result="BackgroundImageFix"/>
<feColorMatrix in="SourceAlpha" type="matrix" values="0 0 0 0 0 0 0 0 0 0 0 0 0 0 0 0 0 0 127 0" result="hardAlpha"/>
<feOffset dy="4"/>
<feGaussianBlur stdDeviation="2"/>
<feColorMatrix type="matrix" values="0 0 0 0 0 0 0 0 0 0 0 0 0 0 0 0 0 0 0.07 0"/>
<feBlend mode="normal" in2="BackgroundImageFix" result="effect1_dropShadow_65_17983"/>
<feBlend mode="normal" in="SourceGraphic" in2="effect1_dropShadow_65_17983" result="shape"/>
</filter>
<filter id="filter7_d_65_17983" x="147.528" y="185.904" width="96.167" height="296.58" filterUnits="userSpaceOnUse" color-interpolation-filters="sRGB">
<feFlood flood-opacity="0" result="BackgroundImageFix"/>
<feColorMatrix in="SourceAlpha" type="matrix" values="0 0 0 0 0 0 0 0 0 0 0 0 0 0 0 0 0 0 127 0" result="hardAlpha"/>
<feOffset dy="4"/>
<feGaussianBlur stdDeviation="2"/>
<feColorMatrix type="matrix" values="0 0 0 0 0 0 0 0 0 0 0 0 0 0 0 0 0 0 0.07 0"/>
<feBlend mode="normal" in2="BackgroundImageFix" result="effect1_dropShadow_65_17983"/>
<feBlend mode="normal" in="SourceGraphic" in2="effect1_dropShadow_65_17983" result="shape"/>
</filter>
<filter id="filter8_d_65_17983" x="434.462" y="303.4" width="101.417" height="52.4718" filterUnits="userSpaceOnUse" color-interpolation-filters="sRGB">
<feFlood flood-opacity="0" result="BackgroundImageFix"/>
<feColorMatrix in="SourceAlpha" type="matrix" values="0 0 0 0 0 0 0 0 0 0 0 0 0 0 0 0 0 0 127 0" result="hardAlpha"/>
<feOffset dy="4"/>
<feGaussianBlur stdDeviation="2"/>
<feColorMatrix type="matrix" values="0 0 0 0 0 0 0 0 0 0 0 0 0 0 0 0 0 0 0.07 0"/>
<feBlend mode="normal" in2="BackgroundImageFix" result="effect1_dropShadow_65_17983"/>
<feBlend mode="normal" in="SourceGraphic" in2="effect1_dropShadow_65_17983" result="shape"/>
</filter>
<filter id="filter9_d_65_17983" x="144.293" y="174.538" width="293.567" height="307.97" filterUnits="userSpaceOnUse" color-interpolation-filters="sRGB">
<feFlood flood-opacity="0" result="BackgroundImageFix"/>
<feColorMatrix in="SourceAlpha" type="matrix" values="0 0 0 0 0 0 0 0 0 0 0 0 0 0 0 0 0 0 127 0" result="hardAlpha"/>
<feOffset dy="4"/>
<feGaussianBlur stdDeviation="2"/>
<feColorMatrix type="matrix" values="0 0 0 0 0 0 0 0 0 0 0 0 0 0 0 0 0 0 0.07 0"/>
<feBlend mode="normal" in2="BackgroundImageFix" result="effect1_dropShadow_65_17983"/>
<feBlend mode="normal" in="SourceGraphic" in2="effect1_dropShadow_65_17983" result="shape"/>
</filter>
<filter id="filter10_d_65_17983" x="247.372" y="360.734" width="190.488" height="121.583" filterUnits="userSpaceOnUse" color-interpolation-filters="sRGB">
<feFlood flood-opacity="0" result="BackgroundImageFix"/>
<feColorMatrix in="SourceAlpha" type="matrix" values="0 0 0 0 0 0 0 0 0 0 0 0 0 0 0 0 0 0 127 0" result="hardAlpha"/>
<feOffset dy="4"/>
<feGaussianBlur stdDeviation="2"/>
<feColorMatrix type="matrix" values="0 0 0 0 0 0 0 0 0 0 0 0 0 0 0 0 0 0 0.07 0"/>
<feBlend mode="normal" in2="BackgroundImageFix" result="effect1_dropShadow_65_17983"/>
<feBlend mode="normal" in="SourceGraphic" in2="effect1_dropShadow_65_17983" result="shape"/>
</filter>
<linearGradient id="paint0_linear_65_17983" x1="150.032" y1="409.992" x2="150.032" y2="534.993" gradientUnits="userSpaceOnUse">
<stop stop-color="#3B82F6"/>
<stop offset="1" stop-color="#D946EF"/>
</linearGradient>
<linearGradient id="paint1_linear_65_17983" x1="150.032" y1="409.992" x2="150.032" y2="534.993" gradientUnits="userSpaceOnUse">
<stop stop-color="#3B82F6"/>
<stop offset="1" stop-color="#D946EF"/>
</linearGradient>
<linearGradient id="paint2_linear_65_17983" x1="77.5153" y1="142.286" x2="77.5153" y2="505.66" gradientUnits="userSpaceOnUse">
<stop stop-color="#3B82F6"/>
<stop offset="1" stop-color="#D946EF"/>
</linearGradient>
<linearGradient id="paint3_linear_65_17983" x1="77.5153" y1="142.286" x2="77.5153" y2="505.66" gradientUnits="userSpaceOnUse">
<stop stop-color="#3B82F6"/>
<stop offset="1" stop-color="#D946EF"/>
</linearGradient>
<linearGradient id="paint4_linear_65_17983" x1="502.792" y1="307.457" x2="502.792" y2="493.594" gradientUnits="userSpaceOnUse">
<stop stop-color="#3B82F6"/>
<stop offset="1" stop-color="#D946EF"/>
</linearGradient>
<linearGradient id="paint5_linear_65_17983" x1="502.792" y1="307.457" x2="502.792" y2="493.594" gradientUnits="userSpaceOnUse">
<stop stop-color="#3B82F6"/>
<stop offset="1" stop-color="#D946EF"/>
</linearGradient>
<linearGradient id="paint6_linear_65_17983" x1="396.071" y1="428.034" x2="396.071" y2="651.001" gradientUnits="userSpaceOnUse">
<stop stop-color="#3B82F6"/>
<stop offset="1" stop-color="#D946EF"/>
</linearGradient>
<linearGradient id="paint7_linear_65_17983" x1="396.071" y1="428.034" x2="396.071" y2="651.001" gradientUnits="userSpaceOnUse">
<stop stop-color="#3B82F6"/>
<stop offset="1" stop-color="#D946EF"/>
</linearGradient>
<linearGradient id="paint8_linear_65_17983" x1="174.049" y1="423.719" x2="174.049" y2="649.315" gradientUnits="userSpaceOnUse">
<stop stop-color="#3B82F6"/>
<stop offset="1" stop-color="#D946EF"/>
</linearGradient>
<linearGradient id="paint9_linear_65_17983" x1="174.049" y1="423.719" x2="174.049" y2="649.315" gradientUnits="userSpaceOnUse">
<stop stop-color="#3B82F6"/>
<stop offset="1" stop-color="#D946EF"/>
</linearGradient>
<linearGradient id="paint10_linear_65_17983" x1="165.682" y1="87.8365" x2="165.682" y2="225.188" gradientUnits="userSpaceOnUse">
<stop stop-color="#3B82F6"/>
<stop offset="1" stop-color="#D946EF"/>
</linearGradient>
<linearGradient id="paint11_linear_65_17983" x1="165.682" y1="87.8365" x2="165.682" y2="225.188" gradientUnits="userSpaceOnUse">
<stop stop-color="#3B82F6"/>
<stop offset="1" stop-color="#D946EF"/>
</linearGradient>
<linearGradient id="paint12_linear_65_17983" x1="178.917" y1="2.00003" x2="178.917" y2="224.966" gradientUnits="userSpaceOnUse">
<stop stop-color="#3B82F6"/>
<stop offset="1" stop-color="#D946EF"/>
</linearGradient>
<linearGradient id="paint13_linear_65_17983" x1="178.917" y1="2.00003" x2="178.917" y2="224.966" gradientUnits="userSpaceOnUse">
<stop stop-color="#3B82F6"/>
<stop offset="1" stop-color="#D946EF"/>
</linearGradient>
<linearGradient id="paint14_linear_65_17983" x1="195.612" y1="186.904" x2="195.612" y2="473.484" gradientUnits="userSpaceOnUse">
<stop stop-color="#3B82F6"/>
<stop offset="1" stop-color="#D946EF"/>
</linearGradient>
<linearGradient id="paint15_linear_65_17983" x1="195.612" y1="186.904" x2="195.612" y2="473.484" gradientUnits="userSpaceOnUse">
<stop stop-color="#3B82F6"/>
<stop offset="1" stop-color="#D946EF"/>
</linearGradient>
<linearGradient id="paint16_linear_65_17983" x1="485.171" y1="304.4" x2="485.171" y2="346.872" gradientUnits="userSpaceOnUse">
<stop stop-color="#3B82F6"/>
<stop offset="1" stop-color="#D946EF"/>
</linearGradient>
<linearGradient id="paint17_linear_65_17983" x1="485.171" y1="304.4" x2="485.171" y2="346.872" gradientUnits="userSpaceOnUse">
<stop stop-color="#3B82F6"/>
<stop offset="1" stop-color="#D946EF"/>
</linearGradient>
</defs>
</svg>
